<svg width="58" height="48" viewBox="0 0 58 48" fill="none" xmlns="http://www.w3.org/2000/svg">
    <g filter="url(#filter0_d)">
        <path d="M23.1129 1.20747L22.8863 1.13183L22.6501 1.16675C17.9603 1.85973 13.852 4.34439 10.3294 8.51033C6.78659 12.7003 5 17.4854 5 22.8304C5 27.1604 6.25772 30.8095 8.82917 33.697L8.82915 33.697L8.83417 33.7026C11.399 36.5397 14.3438 38.0475 17.649 38.0475C20.0853 38.0475 22.2126 37.1619 23.9833 35.4288L23.9834 35.4289L23.9915 35.4207C25.7531 33.6564 26.6678 31.5628 26.6678 29.1793C26.6678 27.4076 26.0497 25.8074 24.8602 24.4095C23.9557 23.3327 22.4735 22.39 20.5464 21.5363L20.5414 21.5341C17.9366 20.3969 16.9152 18.9257 16.9152 17.187C16.9152 15.8652 17.4228 14.4407 18.562 12.8971L18.5684 12.8883L18.5747 12.8794C19.3315 11.8057 20.7577 10.5505 22.9597 9.12771L22.966 9.12363L22.9722 9.11945C24.2699 8.25306 25.1109 7.68553 25.4833 7.42444L25.7891 7.21009L25.8795 6.84781L25.9879 6.4137L26.0177 6.29444V6.17151C26.0177 5.65445 25.8728 5.09037 25.6548 4.515C25.4324 3.92779 25.1092 3.26531 24.697 2.53347L24.6934 2.52717L24.6898 2.52092C24.3277 1.8993 23.8004 1.43699 23.1129 1.20747ZM48.5726 1.22137L48.3256 1.18426L48.0902 1.26765C45.0149 2.35687 42.1525 3.98861 39.5044 6.15449C36.8177 8.31555 34.7698 10.9747 33.3691 14.1215C31.9789 17.2447 31.278 20.4396 31.278 23.6986C31.278 27.7177 32.5083 31.1623 34.9977 33.9671L35.0025 33.9726L35.0075 33.978C37.5028 36.7078 40.3747 38.156 43.6019 38.156C46.1879 38.156 48.4231 37.3102 50.2447 35.6075C52.0323 33.9366 53 31.9848 53 29.7762C53 26.4397 51.0795 23.8868 47.6376 22.1051L47.6314 22.102C46.5504 21.5518 45.6846 21.0561 45.0241 20.615C44.3537 20.1675 43.9454 19.8093 43.7313 19.5453C43.5004 19.2547 43.3015 18.706 43.3015 17.7296C43.3015 16.1446 43.7867 14.709 44.7793 13.3942L44.7793 13.3942L44.7862 13.3849C45.7813 12.0347 48.1219 10.1496 51.9895 7.72413L52.3146 7.52026L52.4198 7.15127L52.6365 6.39158L52.6749 6.2571V6.11725C52.6749 5.07278 52.0704 3.97486 51.2127 2.89178L51.2127 2.89175L51.2064 2.88397C50.4891 1.99654 49.6159 1.37811 48.5726 1.22137Z" stroke="white" stroke-width="2"/>
    </g>
    <defs>
        <filter id="filter0_d" x="0" y="0.107666" width="58" height="47.0483" filterUnits="userSpaceOnUse" color-interpolation-filters="sRGB">
            <feFlood flood-opacity="0" result="BackgroundImageFix"/>
            <feColorMatrix in="SourceAlpha" type="matrix" values="0 0 0 0 0 0 0 0 0 0 0 0 0 0 0 0 0 0 127 0"/>
            <feOffset dy="4"/>
            <feGaussianBlur stdDeviation="2"/>
            <feColorMatrix type="matrix" values="0 0 0 0 0 0 0 0 0 0 0 0 0 0 0 0 0 0 0.25 0"/>
            <feBlend mode="normal" in2="BackgroundImageFix" result="effect1_dropShadow"/>
            <feBlend mode="normal" in="SourceGraphic" in2="effect1_dropShadow" result="shape"/>
        </filter>
    </defs>
</svg>
