<svg viewBox="0 0 750.9708 396" xmlns="http://www.w3.org/2000/svg"><g fill="#6969e6"><path d="m110.9708 396h-42l-9.4359-15.1152-1.5081.3444-5.056 14.7708h-52.9708v-396h3.9708c-.9956 4.8113-2.0767 9.607-2.9574 14.4391-.6085 3.3381.7473 4.7514 4.3613 4.6255 6.98-.2429 13.9743-.0313 20.9622-.0865a28.75 28.75 0 0 0 4.2547-.766l-11.6208-18.2121h44c-1.21 3.4156-2.3165 6.8723-3.6524 10.238-2.4817 6.2523-5.0972 12.4515-8.18 19.944h34.3632l-13.106 31.6969 33.68 1.5955-13.3593 31.9138h34.4437c-4.7226 11.4151-8.9357 21.5985-13.4956 32.62 10.2163 0 19.4925-.0292 28.7684.0119 4.93.0218 5.3222.6364 3.4572 5.1681-3.5792 8.6976-7.19 17.3823-11.35 27.4321h34.3118c-4.7108 11.4375-8.8267 21.4307-13.1564 31.9433l33.6857 1.7991c-4.4946 10.7709-8.6465 20.72-12.9716 31.0849 11.73 1.7056 22.7425-1.1205 33.6371 1.9677-3.1355 7.5321-6.0059 14.24-8.7272 21.0076-4.2365 10.5362-4.1935 10.5561 7.4692 10.5645 7.2264.0052 14.4528.001 22.5.001-4.5578 11.0077-8.69 20.9882-13.169 31.8052l33.8019 1.6388c-4.4007 10.5771-8.6237 20.7269-13.4305 32.28h34.308l-13.3179 32.2787c2.6125 0 4.2241-.0009 5.8356 0 7.8289.0049 15.6606.1372 23.4856-.0342 4.3768-.0959 4.8834 1.6041 3.16 5.1231-1.5332 3.1306-2.9357 6.3315-4.2588 9.5575-2.2751 5.547-4.4437 11.1377-7.1808 18.029h33.3816c-.415 2.8152-.6743 4.5741-.9335 6.3331h-42l-9.9608-15.9005-1.4469.3591-5.5923 15.5418h-34l-14.38-23.9419-1.5131.1351-9.1069 23.8068h-76l-4.2557-8.0855zm-39.0078-310.9921c-2.173-4.0174-4.1671-8.1449-6.5587-12.0279-4.0981-6.6525-8.4443-13.1521-13.3314-20.7131-4.7135 11.129-8.9158 21.0512-13.86 32.7252h33.7659c-1.8834 5.0922-3.6865 10.2161-5.6724 15.2681-2.0843 5.3024-4.3437 10.5359-6.948 16.8156h33.6466a29.5756 29.5756 0 0 0 -1.531-3.1778c-5.1188-8.1143-10.2331-16.2322-15.4646-24.2737a41.5157 41.5157 0 0 0 -4.0464-4.6164zm84 131-19.7625-32.0389-1.5655.5507-13.1094 31.4723h34.4533c-4.35 10.4163-8.7 20.8327-13.2218 31.6607h33.4713c-1.452-2.5658-2.4533-4.58-3.6746-6.4512-5.4961-8.4201-11.0546-16.7994-16.5905-25.1936zm-41.403-66.053-20.8231-32.3249c-4.5969 10.6862-8.6253 19.8718-12.37 29.1716-.242.6008 1.68 2.9905 2.6319 3.0128 9.7554.2291 19.5183.1405 30.5612.1405zm21.1637 33.4272-21.1653-33.2236c-4.6628 11.1108-8.7808 20.9231-13.2984 31.6879zm-104.5545-164.0764c-4.65 11.1633-8.7958 21.1167-13.3451 32.0387h33.7537zm132.457 260.8786h33.6374c-6.5688-10.3683-12.93-20.4091-19.2913-30.45l-1.6019.0455c-4.1037 9.7902-8.2073 19.5802-12.7442 30.4045zm53.5706 33.9244.9067-1.36-20.2835-31.6969c-4.6949 11.184-8.8682 21.1255-13.2539 31.5727zm43.2695 65.0644-21.0073-32.595-12.9528 30.8119c11.2795 3.0078 21.9866.9369 33.9601 1.7831zm-55.1783-33.478h33.8085l-20.4672-31.794c-4.708 11.2198-8.8361 21.0574-13.3413 31.794zm-83.9263-105.4268c-3.9676 9.4193-7.4617 17.4272-10.6124 25.5681-.3815.9856 1.0556 3.8626 1.7075 3.8816 9.0065.2621 18.0231.1771 27.9344.1771zm-43.4891-68.28-18.8388-29.9548c-4.3668 10.359-8.1373 19.3034-12.2327 29.0188 5.4681.3421 10.2121.7561 14.9644.9035 4.795.1487 9.5982.0328 16.1071.0328zm64.4239 101.0045-12.1553 28.8942 31.5121 1.3833c-6.7794-10.6039-12.7003-19.8651-19.3568-30.2772zm-116.4465-134.316h30.8536l-18.56-29.3221zm10.2665-32.4651-18.9284-29.6183c-4.2955 10.4826-7.9735 19.4585-12.1367 29.6183zm135.6141 261.31h30.8552l-18.78-28.9061c-4.3758 10.475-8.1443 19.4965-12.0753 28.9064zm-92.0847-192.69-12.02 29.4507h30.93zm20.9534 32.9068-12.1974 28.9684h30.7989zm81.1322 126.9215-18.6791-28.7365-12.1278 28.7365zm-106.153-43.3788h27.9655l-16.8278-26.226zm7.1344-32.4832c-5.62-8.8921-10.9629-17.3464-16.8312-26.6319l-11.0543 26.6319zm66.4938 104.5476c-3.9123 9.1355-7.2176 16.8534-10.755 25.1134 9.4934 2.715 18.2612 1.1705 27.9688 1.4-5.8445-9.002-11.0794-17.065-17.2138-26.5134zm-125.1048-196.5251c-3.8468 9.3959-7.1039 17.3517-10.6233 25.9481l28.276 1.4829zm104.31 163.6155c-3.8792 9.2255-7.3316 17.4362-11.0107 26.1857h27.63zm-83.31-130.9289-10.9964 26.0129h27.3993zm62.413 98.0062-11.0428 26.746h27.7839zm-23.7185 81.0435h24.8756c-5.1695-8.0613-9.79-15.2657-15.07-23.5zm-51.7572-120.26-1.56.1192c-2.8677 6.9233-5.7355 13.8466-9.0335 21.8086h24.5215zm19.8238 31.0885-9.3938 23.2361 25.0108 1.4375zm-51.2588-41.7828h24.6564l-15.054-23.3325c-3.4018 8.2664-6.3266 15.3724-9.6024 23.3325zm86.9379 98.022-14.6505-22.9715c-3.4747 8.0189-6.5969 15.2241-9.9539 22.9715zm-67.0132-184.6721-16.5561-25.9759c-1.0494.887-1.5065 1.0861-1.52 1.3117-.46 7.7177-.9191 15.4365-1.2015 23.1615-.0173.4739 1.4 1.4171 2.1663 1.4356 5.2857.1275 10.5759.0671 17.1113.0671zm17.533 186.0191-8.5311 20.7141h21.5244zm-20.8012-32.3715c-3.1242 7.5209-5.6548 13.6126-8.3283 20.0486h20.9647zm-2.0682-241.4785-13.2416-20.6054-.9673.496v9.439c0 12.6087 0 12.6093 12.8194 11.3252a10.0733 10.0733 0 0 0 1.3895-.6548zm-.5806 316.5173-10.7213-17.2c-4.4245 5.4842-2.9976 10.9745-2.3061 15.9169.1336.9555 5.9793 1.1493 9.2023 1.6081a23.49 23.49 0 0 0 3.8251-.325zm-4.9738-87.5369-7.7094-11.5377a15.1707 15.1707 0 0 0 -.9447 6.2238c.0081 6.8932.276 7.092 8.6541 5.3139z"/><path d="m336.9708 396h-16a12.1873 12.1873 0 0 0 -.8616-2.2844c-7.2056-11.5486-14.3748-23.1209-21.6878-34.6015q-37.0514-58.1667-74.1949-116.2748-34.9918-54.758-70.04-109.48-34.8116-54.5583-69.4642-109.2186c-5.0507-7.9622-9.8412-16.0895-14.7515-24.1407h18l-3.1327 8.2185h34.27l-13.5326 32.3781h34.3807l-13.1468 31.9728 33.6224 1.761c-4.4836 10.8306-8.5729 20.7085-13.25 32.0073h34.4056l-12.9556 31.1323c11.1378 3.3024 22.191.2464 33.4544 2.1125-4.2558 10.4712-8.3316 20.4993-12.672 31.1785l33.4858 1.667c-4.3874 10.6455-8.5684 20.79-12.86 31.203 11.3361 1.3244 22.2123-1.2065 33.3331 2.0522-4.26 10.5481-8.3107 20.5763-12.7132 31.4766h34.2428c-4.4809 10.8316-8.68 20.9817-13.4912 32.6125h34.3224c-4.7181 11.3973-8.852 21.3831-13.1584 31.7857l33.5759 1.6765-12.9641 31.9449h34.1436c-4.4653 10.8979-8.5628 20.8983-13.2607 32.3637h34.147c-4.0893 10.3469-7.6679 19.402-11.2464 28.4569z"/><path d="m146.9708 0c-1.8073 4.2833-3.5415 8.5993-5.4409 12.8413-2.1939 4.9-1.5392 6.0521 4.0557 6.1238 7.3308.094 14.6634.0332 21.9953.0385 1.6192.0011 3.2385 0 5.86 0l-13.2086 31.8925 33.7694 1.5244c-4.3517 10.4239-8.5429 20.4633-13.2293 31.6895h34.4327l-13.5151 32.7372h34.2926l-13.1874 31.97c5.957.42 11.3064.9426 16.6677 1.1335 5.2912.1884 10.5945.0411 17.1069.0411-4.4609 10.8529-8.5654 20.8388-12.98 31.5787l33.5773 1.7317-12.7661 31.4218h34.085c-3.5636 8.6791-6.6864 16.288-9.815 23.8945-.1262.3069-.3171.5865-.4587.8879-3.4767 7.4034-2.8 8.4683 5.4377 8.4813 8.252.0131 16.5041.0029 25.4884.0029-4.5364 11.06-8.7111 21.2391-13.03 31.7686l33.5446 1.5893-13.1318 32.127h34.2958l-13.3851 32.3645h34.277c-4.5808 11.2588-8.6618 21.2892-13.0231 32.009l33.3208 1.6164c-2.1187 5.8041-4.0773 11.1695-6.0358 16.5349h-24q-3.4677-5.4468-6.9355-10.8939-35.0064-55.003-70.009-110.0087-41.28-64.9267-82.5319-129.8712c-11.76-18.4689-23.7291-36.8041-35.5017-55.2647-12.0443-18.8868-23.9565-37.8575-35.9419-56.7818q-10.5166-16.6046-21.08-33.18z"/><path d="m421.9708 396c-5.0131-8.1826-9.9458-16.4157-15.056-24.5373q-15.9075-25.282-31.9758-50.4627c-17.4263-27.2771-34.98-54.4729-52.3705-81.7727-9.9889-15.6807-19.668-31.5588-29.6548-47.2409-15.0629-23.6531-30.3213-47.1817-45.41-70.8187q-38.0471-59.6033-75.9674-119.2877a7.2448 7.2448 0 0 1 -.5655-1.88h34c-2.4874 6.64-4.9528 13.288-7.4729 19.9153-1.049 2.7585-2.2148 5.4726-3.8631 9.523h34.2811c-4.7107 11.5396-8.8019 21.5617-13.1371 32.1809l33.5349 1.7408-13.2165 32.0346h34.3593c-4.0858 9.8633-7.5844 18.2638-11.0447 26.68-1.93 4.6944-1.2454 5.8237 3.9344 5.884 8.97.1043 17.9421.0289 27.9375.0289-4.5446 10.9219-8.7737 21.0853-13.235 31.8069l33.78 1.5845c-4.2713 10.38-8.45 20.5337-13.1712 32.0069h34.1521l-13.2376 32.4221h34.1816l-13.0121 32.0835 33.5727 1.581-12.7862 31.0689 33.5956 1.6692c-4.3251 10.5881-8.4519 20.6907-12.949 31.7h34.1181c-4.5123 11.0349-8.6834 21.2356-13.3075 32.5441h34.2539c-4.6717 11.3569-8.8557 21.5281-13.2347 32.1736l32.8068 1.71c-.3188 2.1471-.58 3.9042-.84 5.6612z"/><path d="m472.9708 396q-19.0344-30.0549-38.0787-60.1037c-12.92-20.2982-25.9632-40.5178-38.8745-60.8214q-36.5954-57.5477-73.1153-115.1431c-16.75-26.312-33.6645-52.519-50.43-78.8209q-25.8223-40.5099-51.5015-81.1109h9a17.4909 17.4909 0 0 1 -.9478 2.8074c-2.2377 4.1954.4177 5.0734 3.6427 5.1333 7.4934.1391 14.9909.058 22.4867.0654 1.769.0017 3.5381 0 6.2695 0-4.5094 10.8845-8.6447 20.8657-13.127 31.6847l33.6715 1.7181c-4.38 10.4525-8.6294 20.5961-13.24 31.6 6.2628 0 11.6994-.15 17.1238.0428 5.2451.186 10.4777.7243 16.6884 1.1791-4.3793 10.7762-8.4564 20.8086-12.914 31.7773 9.8332 0 18.7512-.0093 27.6693.0031 6.42.009 6.5752.203 4.2013 5.949-3.4652 8.3877-6.9926 16.75-10.8192 25.9013l33.724 1.6025-12.6839 31.0919 33.4719 1.6654-12.9842 31.5562h34.3219c-2.7327 6.6068-5.0266 12.1727-7.3374 17.7317-1.402 3.3726-2.7616 6.7652-4.2634 10.0932-1.9878 4.4047.5581 5.3324 4.0845 5.364 7.8284.07 15.6579.0177 23.4867.05 1.2846.0052 2.5684.1854 4.5441.3383-4.38 10.6255-8.5777 20.8093-12.9182 31.3393l33.4711 1.6075-13.0165 32.1845h34.3088l-13.5135 32.3818h34.3417l-13.1881 31.97 33.65 1.6416-11.2047 27.5206z"/><path d="m522.9708 396-10.8176-18.2716 32.196 1.53-6.3784 16.7416z"/><path d="m347.9708 0c-3.266 7.9051-6.5321 15.81-10.3189 24.9756l-15.6811-24.9756z"/><path d="m674.9708 396-11.7108-18.3339c7.9186.5454 14.5437.924 21.134 1.6287.4432.0474 1.2139 2.7653.8207 3.8864-1.526 4.3508-3.461 8.5581-5.2437 12.8188z"/><path d="m572.9708 396-2.54-6.2746h28.4136c-.7864 2.6332-1.33 4.4539-1.8739 6.2746z"/><path d="m288.9708 0-7.0308 17.345-9.9692-17.345z"/><path d="m253.9708 396 5.5925-15.5418 1.4469-.3591 9.9606 15.9009z"/><path d="m489.9708 0-5.8094 14.96-1.5569.1029-8.6337-15.0629z"/><path d="m750.9708 344-3.7979 6.4379c-3.2888-5.0784-6.25-9.6509-9.998-15.4379h13.7959z"/><path d="m724.9708 396c-.9526-2.0343-1.9051-4.0687-2.942-6.2831h19.1521l-2.2101 6.2831z"/><path d="m430.9708 0c-.7523 2.244-1.5045 4.488-2.7835 8.3032-2.2566-3.5919-3.7366-5.9475-5.2165-8.3032z"/><path d="m631.9708 0-1.8574 6.3417-1.2771.3545-3.8655-6.6962z"/><path d="m357.5389 84.3246-12.9854 30.6666-19.6135-30.6666z"/><path d="m482.3319 280.7232c-4.4014 10.5663-8.262 19.8344-12.7138 30.5219-6.9951-10.8569-13.1963-20.4817-19.6653-30.5219z"/><path d="m419.7764 182.7722c-4.4541 10.6164-8.314 19.8167-12.7472 30.3832l-19.284-30.3832z"/><path d="m448.6852 278.58-19.6745-30.77h32.6093c-4.384 10.4282-8.3063 19.759-12.9348 30.77z"/><path d="m336.31 52.1709-12.494 30.0322-19.2482-29.8066.8538-1.5938z"/><path d="m398.9426 150.2829c-4.1836 9.8069-8.2051 19.2336-12.788 29.9766l-20.0732-31.4458z"/><path d="m503.1294 313.5136c-4.2743 10.1684-8.22 19.5553-12.7082 30.232l-19.5483-30.232z"/><path d="m408.361 215.256h32.2332l-12.7128 30.614z"/><path d="m511.2072 376.687c-6.7485-10.5481-12.8568-20.0957-19.3453-30.2373h32.0406c-4.1701 9.9322-8.2206 19.5797-12.6953 30.2373z"/><path d="m283.3865 18.8972h32.2235c-4.3863 10.6366-8.3025 20.1334-12.6826 30.7551-6.866-10.8068-13.0632-20.5603-19.5409-30.7551z"/><path d="m345.9878 117.2426h32.1482l-12.6922 30.3774c-6.7305-10.5087-12.8784-20.1077-19.456-30.3774z"/><path d="m474.1376 193.7076c-3.9526 9.3736-7.5075 17.8039-11.5754 27.4512-6.28-9.914-11.7789-18.5966-17.3873-27.4512z"/><path d="m362.8032 61.7169 27.9523 1.2743-11.4643 27.3353-17.3958-27.1428z"/><path d="m453.3274 161.1435c-3.8177 9.04-7.276 17.2284-11.4172 27.034l-18.58-28.3733z"/><path d="m400.07 123.05-17.511-27.6643h29.1578c-3.8974 9.2572-7.4949 17.8019-11.6468 27.6643z"/><path d="m536.6585 291.81c-4.0408 9.5838-7.48 17.74-11.5273 27.34l-17.5812-27.34z"/><path d="m557.459 324.47-11.4665 27.4588c-6.0825-9.4588-11.6015-18.0423-17.6561-27.4588z"/><path d="m340.142 28.9517 29.883 1.43c-3.8587 9.0125-7.5231 17.5709-11.579 27.0438z"/><path d="m487.65 257.898 27.866 1.4914c-3.744 9.1086-7.2242 17.5753-11.1666 27.1663l-17.4344-27.2152z"/><path d="m466.0211 226.2718h29.0289c-3.8571 9.0992-7.5 17.6934-11.66 27.5072z"/><path d="m565.7735 383.0878c-5.5722-8.6773-11.1444-17.3546-16.8184-26.19h29.3121l-10.8639 26.2092z"/><path d="m420.9713 155.72-17.2873-27.1645h28.6836z"/><path d="m564.6378 302.3637h26.4333l-10.2733 24.72z"/><path d="m559.87 294.48c-5.8232-9.0375-10.7794-16.73-16.5854-25.74l26.8678 1.4539c-3.4449 8.1372-6.6056 15.6024-10.2824 24.2861z"/><path d="m445.2079 73.8457-10.2979 24.3503-15.6616-24.35z"/><path d="m507.6784 171.9081-10.229 24.4373c-5.4912-8.5079-10.51-16.2833-15.7724-24.4373z"/><path d="m400.0461 39.7906 24.1167 1.5131-10.1811 24.4134c-5.5016-8.78-10.4561-16.6867-15.4106-24.5936z"/><path d="m502.3971 204.41h26.0792l-10.3163 24.7054z"/><path d="m476.4349 163.3818-16.0771-24.8569a42.3694 42.3694 0 0 1 5.096-.478c5.7871.26 11.586.4752 17.3387 1.0955 1.0787.1163 3.0162 2.428 2.7806 3.0219-2.7242 6.8689-5.7906 13.6021-9.1382 21.2175z"/><path d="m632.403 368.3927c-3.3513 8.1261-6.4165 15.5582-10.0506 24.37l-16.108-25.5831z"/><path d="m538.9794 261.9436-15.4568-24.4195h25.6548z"/><path d="m439.9352 106.2218h26.1321l-10.2836 24.5117z"/><path d="m393.173 32.788-15.4092-24.228h25.6084c-3.3643 7.9916-6.5294 15.5105-10.1992 24.228z"/><path d="m601.3111 359.6878-15.5862-24.6654c8.243 0 15.4382-.1045 22.6213.1423.8267.0284 2.4989 2.3794 2.2362 3.0363-2.7414 6.8527-5.7984 13.579-9.2713 21.4868z"/><path d="m602.72 279.7915 21.7109.9737c-3.0974 7.5431-5.77 14.0522-8.95 21.7954-4.9392-7.6866-9.2987-14.4708-13.6582-21.2551z"/><path d="m552.8142 204.2587c-5.0529-7.9294-9.3344-14.6481-14.1606-22.2216 7.1309 0 13.0575-.05 18.9825.0214 2.8993.0348 3.9853 1.84 2.9778 4.344-2.2104 5.493-4.7208 10.8654-7.7997 17.8562z"/><path d="m636.2553 335.32-13.8307-21.86h22.9432c-2.9778 7.1421-5.7629 13.8242-9.1125 21.86z"/><path d="m517.2335 148.6961 23.8454 1.5982-8.9589 21.1787z"/><path d="m490.3429 106.3767-13.7909-21.9486h22.9594z"/><path d="m456.7665 50.72 21.6621 1.493-8.79 21.4356-13.7129-21.4386z"/><path d="m559.7218 215.2091h23.2443l-9.11 21.8072c-4.8886-7.5419-9.225-14.2326-14.1343-21.8072z"/><path d="m434.83 19.0062c6.823 0 12.9141-.1484 18.9838.1452 1.0189.0493 2.9875 2.4037 2.7522 3.029-2.2046 5.8594-4.794 11.5742-7.8233 18.6111-5.0671-7.9343-9.4843-14.851-13.9127-21.7853z"/><path d="m497.3462 117.3171h23.0087c-3.0455 7.2259-5.826 13.8232-9.0122 21.3831z"/><path d="m666.0249 346.3532c-2.9562 7.1335-5.6941 13.74-8.9666 21.6373-4.7883-7.6176-8.96-14.2538-13.6009-21.6373z"/><path d="m580.6223 247.9287h22.9218l-8.836 21.8014c-5.0305-7.7861-9.4312-14.5972-14.0858-21.8014z"/><path d="m658.5693 291.2963h20.3473l-7.8988 19.3337c-4.2995-6.6777-8.0845-12.556-12.4485-19.3337z"/><path d="m587.6909 179.7619-11.9029-18.5755.8311-1.3864 18.8194 1.2624c-2.6557 6.4098-4.9797 12.0188-7.7476 18.6995z"/><path d="m513.2365 62.6457h19.7777l-7.0308 17.08-1.5316.5541z"/><path d="m607.4856 210.9078c-3.5331-5.5911-7.0661-11.1823-11.0849-17.5423h20.0224c-2.5768 6.24-4.904 11.876-7.2313 17.5118z"/><path d="m657.7539 259.2681c-2.5655 6.4141-4.7785 11.947-7.4705 18.6776l-12.939-20.0815z"/><path d="m534.0559 95.3773h19.9732l-8.1014 18.64z"/><path d="m679.868 324.2745h19.6951l-7.6513 18.8815z"/><path d="m629.3209 245.0078c-4.2959-6.7362-7.8049-12.2388-11.7941-18.494h19.4392c-2.4309 5.8807-4.7815 11.5667-7.6451 18.494z"/><path d="m512.2666 30.3583c-2.7369 6.2368-5.1677 11.7758-8.09 18.434l-11.5379-18.434z"/><path d="m712.6366 376.0023-11.6227-18.6108h19.2981z"/><path d="m566.7786 146.705-11.7429-18.392h19.3819c-2.5533 6.147-4.8788 11.7462-7.639 18.392z"/><path d="m650.1431 171.4554c-2.2864 5.4135-4.3662 10.3381-6.8907 16.3155l-10.5056-16.3155z"/><path d="m733.2626 302.5061-6.5926 16.0116-10.4081-16.0116z"/><path d="m705.7436 285.8588c-3.8306-6.0242-6.8675-10.8-10.83-17.0318l17.438.9313c-2.2916 5.5829-4.1724 10.1659-6.608 16.1005z"/><path d="m587.4121 73.4446c-2.2971 5.4879-4.287 10.2421-6.6795 15.9582-3.5752-5.5709-6.6664-10.3875-10.2414-15.9582z"/><path d="m670.5189 204.4766c-2.1132 5.3336-4.0228 10.1531-6.4019 16.1574-3.5347-5.6713-6.6026-10.5934-10.07-16.1574z"/><path d="m559.9112 56.8623-10.8176-17.0081 17.2435 1.45c-2.1628 5.2366-4.0599 9.8296-6.4259 15.5581z"/><path d="m591.3518 106.261h16.8582l-6.6588 15.76z"/><path d="m529.0623 8.4049h16.4455c-2.1425 5.29-4.005 9.8879-6.3969 15.7933z"/><path d="m674.7017 237.2753h16.7618c-2.17 5.19-4.086 9.7734-6.5345 15.63z"/><path d="m629.2734 138.9749c-2.5123 5.6344-4.5 10.0932-6.9287 15.539-3.7444-5.7038-6.939-10.57-10.2012-15.539z"/><path d="m690.58 182.4131h13.8209l-5.64 13.4374z"/><path d="m636.4229 97.7838-8.3607-13.4438h13.2713c-1.59 4.3532-2.9715 8.1351-4.9106 13.4438z"/><path d="m670.667 149.0344 12.3886 1.37c-1.628 3.9895-3.122 7.6509-5.1278 12.5664l-8.0741-12.6436z"/><path d="m657.0944 130.1885c-3.1521-4.8851-5.44-8.43-8.1283-12.5968h13.3484z"/><path d="m740.4416 261.0252c-3.0259-4.7269-5.2726-8.2366-8.312-12.9848 4.4376 0 7.6292-.1361 10.792.1048.7068.0539 2.0177 1.6706 1.8513 2.16-1.1188 3.2884-2.5613 6.4669-4.3313 10.72z"/><path d="m712.6615 215.2791h11.7485c0 .75.1762 1.3225-.0276 1.6762-1.72 2.9851-3.51 5.93-5.2786 8.8872l-7.4086-9.3736z"/><path d="m620.4764 52.3583-4.8421 12.3155-7.9522-12.278q.3562-.6843.7123-1.3687z"/><path d="m586.4658 19.218h13.2226c-1.5431 3.9961-2.9624 7.6713-4.9223 12.7467z"/><path d="m675.3142 62.499-4.22 9.9247c-2.2928-3.4179-4.2077-6.2722-6.658-9.9247z"/><path d="m727.8683 159.5027 8.627 2.0849-2.5443 9.4849-6.8435-9.8859z"/><path d="m696.1455 95.4218-4.5312 9.8645c-2.3359-3.8243-3.9663-6.4934-6.0255-9.8645z"/><path d="m643.7789 30.2578h10.5284l-3.9434 9.392z"/><path d="m713.0033 138.2418c-2.5608-3.8314-4.3111-6.45-6.5776-9.8416h9.9783z"/><path d="m726.5794 80.4371c-1.849-2.6-3.1863-4.4805-5.0206-7.06h8.5574c-1.2362 2.4683-2.197 4.3857-3.5368 7.06z"/><path d="m750.439 106.4233c-1.0889 2.4585-1.8507 4.1783-2.97 6.7047l-4.9639-6.7047z"/><path d="m680.4936 8.3723h7.5164l-2.8217 6.21z"/><path d="m705.6361 47.6666-3.7974-6.2492h6.3626c-.8219 2.0026-1.4844 3.6161-2.5652 6.2492z"/></g></svg>