<svg viewBox="0 0 619 488.4441" xmlns="http://www.w3.org/2000/svg"><g fill="#d3b6fe"><path d="m411 488.4441c-1.4906-7.9342-5.87-14.7074-9.0161-21.9537q-19.8153-45.6336-40.14-91.0458c-8.4191-18.9272-17.1422-37.7191-25.558-56.6476-8.8831-19.98-17.4965-40.079-26.3582-60.0682-4.84-10.9168-10.3177-21.5648-14.7929-32.6233-2.4935-6.1618-5.929-11.9192-7.822-18.2958-1.0532-3.5478-3.1255-4.7851-6.6433-4.4164-10.3817 1.0882-20.7779 2.0381-31.1575 3.1445-11.5267 1.2286-23.0407 2.5748-34.5612 3.8616-20.5743 2.2981-41.1371 4.7073-61.728 6.8458-15.33 1.5921-30.7127 2.6787-46.0433 4.2673-16.8063 1.7415-33.5712 3.8782-50.37 5.6978-14.0016 1.5166-28.0306 2.7787-42.0375 4.248-4.9391.5181-9.8489 1.3158-14.772 1.9858v-12c12.3327.2945 24.3913-2.4095 36.6124-3.3835 11.2189-.8941 22.3934-2.3466 33.5868-3.559q17.283-1.872 34.5653-3.7514 15.3137-1.6416 30.6331-3.23c17.9509-1.8679 35.9029-3.7219 53.8438-5.6856 10.8567-1.1883 21.754-2.167 32.6207-3.3574 13.9872-1.5322 27.9595-3.2026 41.9506-4.6978 8.2394-.88 16.5027-1.5366 24.7552-2.2944 2.2088-.2028 3.5551.4445 4.5716 2.77 8.2929 18.9755 16.7482 37.88 25.1963 56.7876 6.2871 14.0711 12.654 28.1066 18.9551 42.1716q15.03 33.5484 30.0076 67.12c7.2693 16.3488 14.3773 32.7693 21.6468 49.1181 10.0231 22.5418 20.2139 45.01 30.12 67.6023 1.6586 3.7827 2.9788 7.724 4.9343 11.3885z"/><path d="m478 488.4441a8.0455 8.0455 0 0 0 -.677-4.37q-6.4426-14.3019-12.7889-28.6471c-10.6388-24.1176-21.1911-48.2737-31.8858-72.3665-6.7185-15.1352-13.72-30.1448-20.4375-45.28-10.8941-24.5466-21.5939-49.18-32.5013-73.72-7.4754-16.819-15.2022-33.526-22.7472-50.3143q-14.1474-31.4794-28.1665-63.0166a70.9611 70.9611 0 0 1 -3.2436-8.3209c-1.3941-4.6266-4.5235-5.4805-8.84-4.9339-18.4042 2.3306-36.8493 4.2759-55.3175 6.0628-20.1075 1.9455-40.1464 4.5906-60.2362 6.734-17.4647 1.8633-34.97 3.3433-52.4366 5.1908-20.4212 2.16-40.8106 4.62-61.231 6.7875-14.4983 1.5389-29.0358 2.707-43.5363 4.2266-14.6641 1.5363-29.3041 3.3021-43.9546 4.9676v-9c18.4453-2.0029 36.8959-3.9577 55.3344-6.021 22.7126-2.5415 45.3886-5.4459 68.1319-7.665 13.8534-1.3516 27.7053-2.6957 41.5376-4.2475 14.4825-1.6246 28.9386-3.5862 43.4587-4.7408 10.75-.8548 21.4417-2.104 32.152-3.2568 15.1539-1.6312 30.3126-3.2184 45.4663-4.8518q18.7764-2.024 37.5443-4.1266c3.52-.398 5.5564.4612 7.1636 4.2112 6.66 15.5379 13.8431 30.8626 20.6122 46.345 11.1623 25.53 22.6449 50.9149 33.8988 76.4023 7.695 17.4273 15.2351 34.9232 22.9706 52.3323 9.5568 21.5077 19.2855 42.939 28.8654 64.4365q19.3456 43.4118 38.5786 86.8738c3.7034 8.3434 7.3729 16.702 11.1144 25.0283a9.951 9.951 0 0 1 1.1712 5.28z"/><path d="m344 488.4441c-2.2844-8.5693-6.6551-16.2773-10.1927-24.3163-9.14-20.7707-18.62-41.3917-27.8748-62.1124q-13.5069-30.2408-26.8325-60.5624c-10.0906-22.9011-20.1821-45.8023-30.0925-68.7814-1.2646-2.9323-3.0207-3.5929-5.7693-3.3132-14.1777 1.4429-28.3606 2.8335-42.536 4.2982-11.6946 1.2085-23.3817 2.4911-35.0713 3.7477q-22.2318 2.39-44.4628 4.7862c-13.3444 1.4207-26.6954 2.7791-40.0387 4.21-17.6244 1.8906-35.22 4.1-52.8755 5.6306-9.414.816-18.7467 2.7034-28.2541 2.4126v-12c7.0376-2.1891 14.41-1.96 21.6168-2.886 14.46-1.857 28.97-3.3394 43.4715-4.8586 11.2117-1.1746 22.4475-2.1167 33.6625-3.2607 9.8925-1.0092 19.77-2.1661 29.6562-3.2372 11.5294-1.2491 23.0623-2.4656 34.5916-3.7151 14.6583-1.5887 29.31-3.2379 43.9731-4.782 10.8812-1.1458 21.776-2.1618 32.6639-3.2438 3.7939-.377 7.7338-.2667 11.3366-1.3116 3.6484-1.0581 4.769.6493 5.9527 3.3208 9.4084 21.2323 19.0618 42.3586 28.2389 63.69 9.7106 22.5715 19.9218 44.9114 30.0086 67.3126 12.0475 26.7555 23.5318 53.7649 35.2351 80.6751 2.6335 6.0553 6.4491 11.6227 7.5925 18.2965z"/><path d="m546 488.4441c-4.1174-9.6-8.1215-19.25-12.3745-28.7895-10.5255-23.6081-21.2111-47.1446-31.7455-70.7487q-17.7765-39.8293-35.4076-79.7234-14.3295-32.2407-28.6947-64.4653-11.5258-25.9485-22.9748-51.931c-8.3777-19.1111-16.3795-38.393-25.1028-57.3438-3.8147-8.2873-7.3225-16.7038-11.1525-24.98q-8.0607-17.4187-15.8634-34.9563c-1.2865-2.881-2.6042-3.6773-6.2572-3.4853-15.4293.8109-30.68 3.1978-46.0419 4.5372-16.4911 1.438-32.9 3.7974-49.3632 5.5856-11.37 1.2351-22.7805 2.0951-34.1562 3.2826-12.8517 1.3417-25.6821 2.8856-38.5265 4.2983-11.3614 1.25-22.7294 2.4389-34.0942 3.6566q-21.9879 2.3561-43.9762 4.7076c-10.7127 1.1273-21.4187 2.3543-32.1522 3.2379-14.7046 1.2106-29.3285 3.0844-43.9769 4.7831-11.3564 1.3168-22.7583 2.2376-34.1397 3.3344v-7c16.141-1.6749 32.2912-3.2666 48.4207-5.0461 19.7462-2.1787 39.4644-4.6133 59.215-6.75 14.3262-1.55 28.6937-2.7135 43.0275-4.1975 14.4906-1.5 28.9586-3.2174 43.4434-4.7759 13.34-1.4353 26.6927-2.7546 40.0335-4.1827 14.65-1.5682 29.286-3.2661 43.94-4.79 14.3391-1.4908 28.6986-2.785 43.04-4.2544 13.5091-1.3842 27.0264-2.7288 40.4926-4.46 2.8148-.3617 3.9805.4122 4.9817 2.6378 7.0811 15.7406 14.2335 31.4493 21.2725 47.2087 5.0076 11.2117 9.8466 22.4985 14.8082 33.731q15.7453 35.6455 31.5526 71.2639c6.8809 15.4607 13.9575 30.8345 20.8123 46.3067 8.8561 19.99 17.5305 40.06 26.3745 60.0545 6.1766 13.9643 12.5617 27.8364 18.7557 41.7931 11.0331 24.86 21.9632 49.7664 32.9934 74.628 6.1907 13.9537 12.501 27.8544 18.743 41.7854.7443 1.6613 1.3976 3.3634 2.0931 5.0465z"/><path d="m277 488.4441c-3.97-9.2662-7.776-18.6069-11.9415-27.7844q-17.0694-37.6083-33.4131-75.535c-6.6288-15.364-13.8018-30.4926-20.5886-45.79-1.3457-3.0332-3.1687-4.1234-6.4956-4.039-11.3014.2868-22.3922 2.4891-33.6273 3.3842-11.7085.9328-23.37 2.4558-35.0509 3.7321-17.608 1.9238-35.211 3.8948-52.8237 5.775-13.67 1.4594-27.3541 2.7814-41.0263 4.2191-11.6874 1.229-23.3637 2.5635-35.052 3.7842-2.3106.2414-4.6532.177-6.981.2536v-15c11.2081-1.1068 22.4205-2.1717 33.623-3.3321 11.1952-1.16 22.3793-2.4259 33.57-3.6255q22.2216-2.3818 44.4468-4.73c10.54-1.1117 21.0869-2.1631 31.6255-3.29q21.7251-2.3229 43.4424-4.7187c9.5438-1.04 19.0894-2.0645 28.6282-3.1478 2.27-.2578 3.3106.99 4.1278 2.81 6.799 15.1429 13.6667 30.2551 20.4227 45.4172 4.9943 11.2085 9.8267 22.4889 14.7766 33.7174 10.161 23.05 20.4007 46.0648 30.4992 69.1417 2.7155 6.2055 6.9178 11.8013 7.8374 18.758z"/><path d="m613 488.4441c-3.1511-7.6008-6.1965-15.2477-9.4761-22.7928-6.28-14.4471-12.6728-28.8451-19.0556-43.2472q-8.3637-18.8718-16.8142-37.705c-11.2244-24.9326-22.73-49.7419-33.6609-74.8019q-10.7406-24.6231-21.697-49.1463c-10.0468-22.5392-19.8467-45.1845-30.1828-67.5991-8.8194-19.1257-16.7283-38.6689-25.3032-57.91-12.8285-28.7863-26.241-57.3178-38.6922-86.2644-5.7669-13.407-12.4171-26.4345-17.4542-40.1566-.8125-2.2136-1.85-3.0932-4.7893-2.7709-18.6127 2.0408-37.2879 3.5036-55.9123 5.4456-16.4695 1.7173-32.8881 3.9187-49.3511 5.7035-14.33 1.5536-28.7008 2.7348-43.0363 4.2445-13.8309 1.4566-27.634 3.1763-41.46 4.68-10.707 1.1643-21.4358 2.1266-32.146 3.2623-14.6564 1.5541-29.2988 3.2413-43.9578 4.77-11.2059 1.1683-22.4376 2.09-33.6409 3.2818-13.6635 1.4524-27.3045 3.1132-40.9637 4.6064q-16.0535 1.755-32.1285 3.3121c-7.753.7602-15.5179 1.3965-23.2779 2.088v-5c18.7775-1.9831 37.5612-3.91 56.3307-5.9659 17.121-1.8752 34.2148-4.0015 51.3425-5.8095 14.6686-1.5485 29.3812-2.68 44.05-4.2238 13.5014-1.4213 26.9607-3.2389 40.4573-4.71 11.0379-1.2033 22.1135-2.0589 33.154-3.24 13.8285-1.479 27.63-3.2122 41.4587-4.6867 11.3726-1.2126 22.7755-2.1392 34.1521-3.3169 14.1707-1.4669 28.3258-3.0834 42.4921-4.5936q16.3091-1.7388 32.6293-3.3727c7.254-.7379 14.59-1.011 21.7354-2.33 3.5019-.645 4.8564.2887 6.0941 3.105 4.3411 9.8781 8.8077 19.701 13.1707 29.57 4.4986 10.1754 8.8919 20.3973 13.4017 30.5677q15.195 34.2672 30.4689 68.4995c12.6754 28.3431 25.6059 56.5737 38.0836 85.0032 13.3938 30.5167 26.7475 61.0458 40.68 91.3246 8.7259 18.9638 16.6989 38.2728 25.1594 57.3605 8.7317 19.7 17.6883 39.3 26.4668 58.9795q13.7823 30.8967 27.3945 61.8694a7.3135 7.3135 0 0 1 .2784 1.97z"/><path d="m210 488.4441c-4.6567-10.623-9.2853-21.2584-13.9765-31.8662-7.7093-17.4326-15.509-34.8253-23.1455-52.29-1.36-3.11-2.8877-3.85-6.4616-3.36-11.3071 1.5521-22.7193 2.3219-34.0753 3.54-13.6539 1.4643-27.2847 3.144-40.9388 4.6064-11.3588 1.2165-22.7431 2.1935-34.1048 3.3852-14.3217 1.5024-28.63 3.1365-42.9483 4.6682-4.7754.5108-9.5657.8812-14.3492 1.3158v-17c14.1483-1.534 28.2924-3.1083 42.4463-4.5895 11.3607-1.1889 22.74-2.2049 34.0989-3.4065 13.9948-1.48 27.9742-3.1047 41.9666-4.608 10.8661-1.1674 21.7453-2.212 32.6122-3.3726 8.3909-.8961 16.7828-1.801 25.1516-2.8783 3.4374-.4424 5.7319.4813 7.1688 3.7893 8.52 19.6151 17.0148 39.2427 25.7267 58.773 6.0106 13.4746 12.5532 26.7126 17.92 40.4723.3583.9186.6087 1.8792.9093 2.82z"/><path d="m0 461.4441c15.6371-1.67 31.2771-3.3142 46.91-5.0185 17.4444-1.9016 34.8771-3.9115 52.3256-5.7738 13.8334-1.4763 27.6826-2.8053 41.526-4.1878 2.0665-.2063 3.8614-.0815 4.9361 2.2679 6.0077 13.1336 12.1189 26.22 17.3019 39.7122h-20.9996c-1.08-7.2305-5.6276-13.0684-7.9635-19.7982-.7456-2.1484-2.5857-2.3359-4.54-2.1117-8.3913.9623-16.7756 1.9938-25.177 2.8581-17.149 1.7642-34.316 3.3552-51.46 5.17-17.6295 1.8661-35.2405 3.9137-52.8595 5.8818z"/></g></svg>