<svg viewBox="0 0 515.021 1192" xmlns="http://www.w3.org/2000/svg"><g fill="#69a0c8"><path d="m0 219c2.5386-.2234 3.3432 1.8895 4.4709 3.4385q60.2735 82.7934 120.5067 165.6159 78.479 107.8422 156.9776 215.67 32.3348 44.4279 64.7193 88.8192c2.2849 3.1148 2.0726 5.1437-.1267 8.1554q-59.5032 81.481-118.8026 163.111-76.3916 105.0014-152.766 210.015-35.8492 49.2786-71.7243 98.5389c-.4674.6421-.9728 1.2566-2.1005 2.7073-.2209-7.0577-.9415-12.6249 3.3377-18.4793q105.8079-144.7619 211.153-289.8619 60.093-82.5894 120.2678-165.1185c2.9335-4.0082 2.609-6.4627-.13-10.2133q-69.8148-95.6128-139.3922-191.3982-73.0434-100.365-146.098-200.7216-24.1063-33.1193-48.2283-66.2273a17.9082 17.9082 0 0 0 -2.0644-2.0511z"/><path d="m0 142c2.5339-.099 3.2 2.0742 4.3283 3.6242q73.4917 100.9608 146.9587 201.9399 125.6347 172.6734 251.3591 345.2815c2.2628 3.1036 1.9013 4.8913-.1218 7.6669q-107.9658 148.1186-215.8054 296.3294-69.6553 95.6914-139.2754 191.4087c-.8764 1.2047-1.6317 2.4976-2.4435 3.7494h-8c7.86-12.3561 16.9232-23.8566 25.5157-35.6874q76.0053-104.65 152.1752-209.1811 72.58-99.7329 145.1612-199.4646c11.3612-15.6134 22.5957-31.3208 34.1257-46.8084 2.4318-3.2665 2.329-5.4084-.0295-8.6395q-63.7492-87.339-127.2821-174.8347-81.2468-111.6621-162.5118-223.3108-49.8115-68.4526-99.6444-136.8898c-1.3361-1.8327-2.2241-4.1437-4.51-5.1837z"/><path d="m95 1192c3.0167-6.7406 8.0148-12.1541 12.2848-18.0278q103.939-142.98 208.0264-285.8532 68.1712-93.659 136.3823-187.289c2.384-3.266 2.29-5.4088-.0622-8.6344q-129.6021-177.7544-259.0207-355.6429-94.4786-129.8184-188.8993-259.6788c-1.0501-1.4432-1.7385-3.2913-3.7113-3.8739v-8c2.2964.0277 2.8828 2.0656 3.9046 3.469q59.9914 82.3893 119.9272 164.8191 96.5633 132.6938 193.146 265.3734 70.3975 96.7421 140.8569 193.4392c2.5923 3.5484 2.3422 5.78-.0687 9.0859q-91.9719 126.1107-183.7834 252.3381-85.6768 117.711-171.3177 235.448a26.568 26.568 0 0 0 -1.6649 3.0273z"/><path d="m152 1192q22.6947-31.3433 45.3963-62.6814 66.5259-91.4808 133.1029-182.9243 64.6482-88.8323 129.3023-177.66c16.5542-22.7481 33.0322-45.5522 49.7111-68.2085 2.3015-3.1264 2.06-5.0616-.184-8.14q-99.4468-136.4237-198.6771-273.0047-95.8032-131.6637-191.6691-263.282-55.8484-76.7242-111.6487-153.4837a18.2407 18.2407 0 0 1 -1.3337-2.6154h5c2.24 6.3912 7.098 11.0733 10.9456 16.368q154.6088 212.7552 309.3875 425.3868 89.6322 123.1952 179.2711 246.3857c5.9257 8.1464 5.8944 8.6666-.1276 16.9444q-93.4294 128.4273-186.8738 256.8437-81.6912 112.27-163.35 224.5636c-1.2385 1.7041-2.9284 3.2286-3.2524 5.5078z"/><path d="m1.4052 1097.9227c-1.8961-9.989.7217-17.5147 6.3705-25.21q75.9443-103.4611 151.2043-207.425 59.7963-82.1739 119.6714-164.29c2.5459-3.4822 2.3308-5.6526-.1-8.9871q-125.1682-171.7351-250.1534-343.6037c-6.8567-9.4223-13.2449-19.2351-20.6994-28.1575-6.173-7.3887-8.3578-15.19-6.16-25.0381 2.5311 3.3837 4.9718 6.57 7.3331 9.8143q93.1692 128.0087 186.3227 256.0285 47.8992 65.825 95.8763 131.5926c2.6464 3.6137 1.38 5.7743-.7128 8.6458q-50.1546 68.8075-100.2052 137.6905-77.1183 105.9925-154.2493 211.9759-15.8692 21.8059-31.7719 43.5874c-.7482 1.0252-1.5938 1.9795-2.7263 3.3764z"/><path d="m.8661 1021.8258c0-6.4255.0591-11.2531-.0286-16.078a7.8974 7.8974 0 0 1 1.8854-4.9866q45.5912-62.55 91.1167-125.1475 61.4042-84.4061 122.7789-168.8337c2.4384-3.3543 6.5865-6.8081 6.5864-10.2155 0-3.4123-4.1385-6.8741-6.5795-10.2294q-101.0733-138.932-202.1737-277.8445c-1.7632-2.423-3.2467-5.1243-5.3363-7.2219-7.9954-8.026-9.9254-17.6499-7.669-28.6387 1.753.257 2.3223 2.1632 3.2816 3.48q66.61 91.4345 133.1619 182.9112 48.6368 66.8379 97.32 133.6418c2.1552 2.9492 2.1448 4.83-.0122 7.791q-115.2687 158.2208-230.3677 316.566c-.9355 1.2861-2.0229 2.4621-3.9639 4.8058z"/><path d="m.867 945.5045c0-7.4179.0764-13.4-.0369-19.379-.0465-2.456 1.4954-4.0235 2.7307-5.7221q50.2371-69.0789 100.5454-138.106 29.84-40.9776 59.7144-81.93c1.9227-2.625 2.336-4.3408.1836-7.2891-52.7224-72.2155-105.1381-144.6562-158.1394-216.6659-6.6785-9.0737-4.09-18.1466-4.1581-27.7888 5.548 7.5532 11.1267 15.0839 16.6391 22.6629q80.5042 110.6865 161.1465 221.2714c3.2342 4.42.9768 6.3693-1.1 9.2232q-87.574 120.3402-175.1506 240.6789c-.4658.64-.9726 1.25-2.3747 3.0445z"/><path d="m.87 867.21c0-6.8026.07-13.6062-.0389-20.4071-.0364-2.28 1.3844-3.6894 2.5273-5.262q47.1205-64.8414 94.29-129.6473c2.7417-3.7686 5.2589-7.733 8.3031-11.24 2.6176-3.0152 2.106-5.2419-.0691-8.21q-31.2912-42.7038-62.3759-85.559-20.2843-27.8597-40.5623-55.7238c-1.07-1.4717-2.1268-2.9068-2.1037-4.9332.0776-6.8018.0295-13.605.0295-20.4644 1.9771-.0615 2.3425 1.4321 3.058 2.4147q59.6831 81.9612 119.4053 163.8938c2.454 3.3588 2.5126 5.5415.0078 8.9691q-60.2511 82.451-120.2175 165.1101a16.0534 16.0534 0 0 0 -.9639 1.7245z"/><path d="m.9171 791.6377c0-9.0943-.0483-17.01.0345-24.9234.02-1.9308 1.5552-3.2555 2.62-4.72 14.9806-20.6007 29.9247-41.2283 45.0211-61.7437 1.9831-2.6949 2.1664-4.4629.0741-7.2986-15.1234-20.4967-29.9965-41.1779-45.061-61.7185a12.5857 12.5857 0 0 1 -2.8-8.2242c.1871-6.7777.057-13.5642 1.0466-20.8219 3.4957 4.6939 7.0348 9.3562 10.48 14.0869q27.7861 38.1543 55.5843 76.3c2.07 2.8252 2.3219 4.8686.1356 7.8495q-31.8928 43.4862-63.5447 87.1504c-.8276 1.1358-1.8625 2.1204-3.5905 4.0635z"/><path d="m1 715.6768v-38.1985c4.744 6.4893 8.7739 11.98 12.7751 17.4912.9178 1.2642.5374 2.5058-.303 3.6564-3.8704 5.2986-7.7471 10.5922-12.4721 17.0509z"/></g></svg>