<svg viewBox="0 0 1322.6391 1198.2265" xmlns="http://www.w3.org/2000/svg"><g fill="#5491bf"><path d="m211.131 1197.8518c-1.3616-1.45-3.1346-.8317-4.7267-.8444-7.9993-.0633-15.9994-.0459-23.9992-.0253-2.95.0075-4.1234-.64-2.1977-3.7519 3.9146-6.325 8.8163-11.9154 12.9762-18.0726 6.9236-10.2482 14.66-19.9453 21.9976-29.9164q14.3272-19.47 28.5546-39.0143c15.8637-21.9093 31.6084-43.9046 47.48-65.8083 10.15-14.0073 20.4808-27.8829 30.6534-41.8737q31.464-43.2738 62.8648-86.5937c9.319-12.79 18.93-25.3683 28.2438-38.1622 12.1252-16.6552 24.0367-33.4659 36.1355-50.14 8.99-12.39 18.1485-24.659 27.2019-37.0038 7.316-9.9759 14.55-20.0119 21.9086-29.9563 1.5195-2.0534.3331-3.2053-.7879-4.74-8.76-11.9964-17.4294-24.0592-26.1647-36.0739q-16.48-22.6672-33.0188-45.2923c-15.9473-21.8448-31.9626-43.64-47.8382-65.537-9.001-12.4147-17.6717-25.069-26.6878-37.4725-12.3117-16.9374-24.87-33.6956-37.2117-50.6111-10.9791-15.0474-21.7772-30.2267-32.7123-45.3063-9.5832-13.2155-19.2557-26.3662-28.87-39.5591-11.5553-15.856-22.9665-31.8218-34.5413-47.6562q-16.3761-22.4028-32.7873-44.7942c-15.9859-21.7967-31.7186-43.7789-47.5935-65.6572q-21.6395-29.823-43.3607-59.5867c-20.9379-28.6162-42.0019-57.14-62.904-85.7825-13.9944-19.1766-27.793-38.4949-41.7073-57.7288-.9718-1.3434-1.9924-2.4811-1.9801-4.3694.0934-14.3317.0718-28.6645.1144-42.9969a7.1063 7.1063 0 0 1 .67-1.7742c4.6094 3.3158 6.88 8.2571 9.9159 12.3229q23.3715 31.2951 45.9264 63.1976 18.8234 26.62 38.1648 52.8595c20.1314 27.3992 39.9621 55.017 60.1094 82.4037 17.465 23.7406 34.6753 47.6684 52.0642 71.4652 12.8306 17.5587 25.8611 34.972 38.632 52.5737 13.7661 18.9732 27.2607 38.1432 41.0132 57.1264 9.2881 12.8209 18.8773 25.4234 28.2215 38.2042 8.3556 11.4284 16.5305 22.9888 24.8386 34.4522q16.6922 23.0316 33.4617 46.0073 23.9727 33.0284 47.9186 66.0762c8.3334 11.4523 16.823 22.7908 25.1821 34.2245q23.0621 31.5446 46.0485 63.1445 20.3621 27.9909 40.6776 56.0154c1.4038 1.9254 1.3428 3.3176-.0868 5.2744-11.4943 15.7343-22.8603 31.5617-34.279 47.3517q-21.0032 29.045-42.04 58.0654c-12.2475 16.809-24.6866 33.4783-36.9188 50.2984-12.9145 17.7585-25.64 35.6542-38.5325 53.4289-8.827 12.17-17.8519 24.1958-26.6923 36.356-12.41 17.07-24.6947 34.23-37.102 51.301-6.9821 9.6067-14.1469 19.0805-21.15 28.6722-9.4389 12.9279-18.7644 25.9388-28.2055 38.8651-12.5366 17.1645-25.17 34.2584-37.6957 51.4309-5.1363 7.0417-10.09 14.2167-15.1535 21.3115-.8032 1.1253-1.46 2.23-1.03 3.672z"/><path d="m89.131.8518c-.1 2.5448 1.5463 4.3352 2.8739 6.1678q19.0108 26.2424 38.1473 52.3936c12.8553 17.5325 25.8723 34.9466 38.6877 52.508 8.5564 11.725 16.8022 23.6765 25.3365 35.4179 9.0177 12.4063 18.2833 24.6324 27.3122 37.0307 10.58 14.5287 20.976 29.1914 31.5352 43.7354 12.4859 17.1979 25.08 34.3177 37.5917 51.4966 10.0625 13.8156 20.0594 27.6788 30.1112 41.5021 7.76 10.6717 15.5755 21.3034 23.3392 31.9727q13.6971 18.8234 27.3513 37.6771c11.0591 15.2013 22.1975 30.3453 33.1979 45.5889 10.7932 14.9567 21.0059 30.3561 32.29 44.929 14.2622 18.419 27.2621 37.746 41.502 56.1769 9.2818 12.0134 17.6578 24.7234 26.5649 37.0307 6.1921 8.5557 12.6722 16.9026 18.8886 25.4411 8.2425 11.3213 16.2823 22.79 24.5371 34.1026 13.0176 17.839 26.2027 35.5558 39.2016 53.4084 10.5855 14.5379 20.9752 29.2185 31.5063 43.7964 4.5329 6.2748 9.079 12.5481 13.8627 18.63 2.4865 3.1615 2.6078 5.654.1317 8.9957-10.9007 14.7113-21.5138 29.6352-32.3191 44.4177-13.04 17.84-26.2436 35.56-39.2335 53.4362-8.7153 11.9934-17.0553 24.26-25.7935 36.2364-10.4048 14.2608-21.1273 28.2893-31.58 42.5153-10.4585 14.2334-20.7545 28.5863-31.1219 42.8866-11.14 15.3669-22.4489 30.6154-33.3771 46.1319-12.1508 17.2523-25.1822 33.8551-37.0426 51.3323-8.8719 13.0734-18.9771 25.304-28.3242 38.0627-10.2449 13.9843-20.22 28.1662-30.3684 42.2214-9.2735 12.8431-18.6491 25.6125-27.9092 38.4652-1.4672 2.0363-3.354 2.4426-5.619 2.4316-7.8323-.038-15.6653-.0669-23.4969.0122-3.185.0321-4.56-.3664-2.097-3.709 8.5138-11.5525 16.8661-23.224 25.2539-34.8689 9.4355-13.0992 18.7843-26.2613 28.2794-39.3172 8.814-12.12 17.8054-24.11 26.658-36.2013q23.0811-31.5265 46.0831-63.1109 21.9749-30.1656 43.8735-60.3868c12.7784-17.6689 25.3635-35.4784 38.22-53.09 15.4318-21.1392 31.1607-42.0618 46.5743-63.2142 13.981-19.1864 27.6962-38.5665 41.559-57.8393 6.734-9.3621 13.4875-18.7111 20.3478-27.9806 1.5342-2.0731 1.6226-3.5973.0426-5.7345-6.2772-8.4906-12.342-17.1379-18.5384-25.6886q-11.4768-15.8376-23.04-31.613c-15.8748-21.7024-31.8255-43.35-47.628-65.1044-9.0086-12.4019-17.6828-25.0468-26.6935-37.4471-12.3187-16.9528-24.8669-33.7387-37.2185-50.6679-10.9851-15.0561-21.815-30.2254-32.7543-45.315-7.2463-9.9956-14.5655-19.9382-21.8508-29.9055q-16.9227-23.1533-33.8372-46.3123-19.8276-27.2407-39.5878-54.5306c-12.7237-17.4815-25.357-35.0311-38.086-52.5047-17.9526-24.6442-36.008-49.2124-53.8117-73.967-12.3193-17.129-25.1747-33.8713-37.6234-50.9085-10.1319-13.8667-19.9384-27.9707-30.0288-41.8682-12.876-17.7342-25.96-35.3177-38.8291-53.0567-12.58-17.3409-24.9149-34.86-37.5262-52.1787-8.9287-12.2603-18.1526-24.3058-27.1929-36.4858a14.301 14.301 0 0 1 -1.3316-3.1444z"/><path d="m190.131.8518a5.1218 5.1218 0 0 0 1.1972 4.09c16.4083 21.4818 32.0837 43.5008 47.8933 65.4232 12.5346 17.3811 25.4249 34.5053 38.014 51.8476 12.4892 17.2046 24.7 34.6118 37.2159 51.7962 12.436 17.074 25.1777 33.9251 37.6418 50.9789 10.5961 14.4979 20.9371 29.1819 31.486 43.7147 8.7019 11.9884 17.6211 23.8193 26.3036 35.8216 12.574 17.3817 24.7605 35.05 37.5986 52.2325 11.9627 16.011 23.6319 32.228 35.37 48.3992q21.04 28.9873 42.18 57.9022 13.5378 18.592 27.05 37.2024c10.4978 14.3781 21.0648 28.7057 31.5529 43.0908q18.9454 25.985 37.8071 52.0309c14.0013 19.3062 27.9268 38.6674 41.9816 57.9344 12.5291 17.1756 25.27 34.1968 37.7653 51.3967 9.202 12.6669 18.1342 25.5295 27.2463 38.2621a71.9735 71.9735 0 0 0 5.3536 6.4926c3.5375 3.8867 2.2533 7.5265-.4872 11.031-11.8906 15.2057-23.0146 30.9649-34.1878 46.6985-9.2668 13.0491-19.1818 25.636-28.62 38.5663-8.6391 11.8361-16.9181 23.9351-25.5459 35.78-12.5194 17.1872-25.2774 34.2-37.8059 51.3811-10.1227 13.8816-19.9939 27.9465-30.0929 41.8457-9.49 13.0612-19.2242 25.9455-28.6855 39.0273-12.3493 17.0754-24.1785 34.539-36.8992 51.33-11.2674 14.8725-21.9894 30.1323-33.132 45.09-12.22 16.4032-23.9427 33.1758-35.9612 49.73-8.4258 11.6056-17.013 23.094-25.45 34.691a5.0221 5.0221 0 0 1 -4.544 2.37c-6.8313-.0859-13.6646.0007-20.4965-.0593-1.2226-.0108-2.851.6074-3.5-1.0544-.5459-1.3972.3716-2.76 1.15-3.6506 6.9671-7.98 12.6089-16.9271 18.8126-25.462q13.38-18.4079 26.7831-36.7989c11.3828-15.59 22.8424-31.1232 34.1793-46.7462 11.8886-16.3829 23.6143-32.884 35.5188-49.2553 8.7257-12 17.67-23.84 26.4375-35.81q23.2277-31.7113 46.3518-63.4988c14.6515-20.1427 29.1994-40.3606 43.8617-60.4952q27.9461-38.378 55.9951-76.6804c9.82-13.4679 19.52-27.0236 29.4067-40.4425 1.3884-1.8844 1.197-2.9631-.0984-4.7287-8.6719-11.8207-17.1933-23.7517-25.7993-35.621q-13.3595-18.4248-26.7927-36.7961c-6.9166-9.4326-14.034-18.7193-20.869-28.21-8.66-12.0245-17.0061-24.2755-25.7028-36.2728-10.7463-14.8246-21.7889-29.4343-32.5658-44.2371-11.9273-16.383-23.6359-32.9252-35.5594-49.3109-8.8262-12.1292-18.07-23.96-26.7225-36.2089-12.5406-17.7536-25.3912-35.29-38.151-52.8758q-15.5578-21.4425-31.4089-42.7192c-13.052-17.4525-25.464-35.3826-38.2472-53.0378-8.2135-11.344-16.6628-22.5172-24.891-33.8507-17.8178-24.5424-35.4817-49.1968-53.3623-73.693-12.635-17.31-25.7832-34.2492-38.22-51.6976-11.3114-15.8689-22.8484-31.5648-34.3471-47.2947-15.9543-21.8249-31.4493-43.985-47.3373-65.859-13.7438-18.9218-27.79-37.6236-41.62-56.4837-1.6348-2.23-3.7079-4.3174-4.051-7.3063z"/><path d="m290.131.8518c8.6674 11.9969 17.4107 23.94 25.9844 36.0033 12.4934 17.579 25.1829 35.0285 37.9081 52.4262 13.8379 18.9189 27.59 37.9138 41.5744 56.7328 11.4975 15.4728 22.65 31.2017 33.9956 46.7879 14.8617 20.4164 29.8086 40.7709 44.6335 61.214 12.8792 17.76 25.5353 35.6825 38.479 53.3951 16.0463 21.9583 32.3546 43.7249 48.42 65.669 10.6371 14.5291 20.9918 29.2646 31.5756 43.833 9.0055 12.3959 18.2515 24.6174 27.2182 37.0409 8.67 12.0123 16.7918 24.4324 25.7479 36.2225 11.079 14.5847 21.7588 29.4514 32.5267 44.2578q24.0017 33.0035 47.9239 66.0648c8.631 11.8606 17.395 23.6244 26.07 35.4532q17.98 24.5167 35.9087 49.0706 21.9627 30.1471 43.83 60.3638c1.07 1.4754 1.7609 3.286 3.019 4.5524 3.3493 3.3718 2.3639 6.2815-.1352 9.658-10.5916 14.3107-21.0147 28.7462-31.5064 43.1309-14.3747 19.7087-28.8108 39.373-43.12 59.13-16.7514 23.1292-33.3136 46.3956-50.11 69.492-13.3708 18.3862-27.0386 36.5563-40.4448 54.9171-9.9225 13.5895-19.5326 27.4074-29.4672 40.9879-15.4521 21.1228-31.3264 41.9419-46.5123 63.2527-10.2768 14.4218-20.805 28.6539-31.1978 42.9872-12.68 17.4883-25.4626 34.9031-38.1708 52.3714-.7611 1.0466-1.1789 2.3367-1.8873 3.4286-3.4956 5.3887-7.63 9.2159-14.9237 7.8031-3.5336-.6843-7.31-.08-10.9751-.14-1.2822-.0209-3.0149.6007-3.7307-.6178-.8756-1.4907.598-2.76 1.4449-3.92 7.8822-10.7966 15.8507-21.5307 23.6953-32.3547 13.5343-18.6748 26.9158-37.4608 40.5152-56.0879 12.5391-17.1748 25.3772-34.1313 37.9021-51.3165 10.298-14.13 20.2216-28.5318 30.5075-42.67 12.6149-17.34 25.5277-34.4632 38.1387-51.8059 12.5035-17.1949 24.7248-34.5948 37.1953-51.8138 10.7477-14.84 21.7063-29.5273 32.5107-44.3266q26.3927-36.1508 52.7079-72.3579 11.5182-15.8106 23.0679-31.5983c1.6346-2.2326 2.361-3.8959.2253-6.767-14.8633-19.9811-29.47-40.1538-44.06-60.3369-12.347-17.08-24.4609-34.3294-36.8638-51.3685-10.3748-14.2531-21.0924-28.2562-31.521-42.4707-9.0689-12.3612-17.9071-24.8914-26.9168-37.2963-12.0946-16.6525-24.4787-33.0995-36.3282-49.9238-12.5988-17.8882-25.7508-35.3741-38.4489-53.19-10.2411-14.369-20.6855-28.6451-31.4038-42.6973-9.1134-11.9479-17.7135-24.2874-26.5376-36.456q-18.723-25.8193-37.4456-51.6391c-11.8064-16.2478-23.6759-32.45-35.4659-48.7095-17.3141-23.8779-34.5154-47.8379-51.8926-71.67-12.4415-17.0627-25.2153-33.8836-37.62-50.9729-15.8772-21.8736-31.4529-43.9659-47.3077-65.856-13.053-18.0217-26.3289-35.882-39.4954-53.8216-7.3282-9.9868-14.582-20.028-22.013-29.9367a6.3617 6.3617 0 0 1 -1.2242-4.1245z"/><path d="m392.131.8518c4.3778 8.5582 10.5913 15.8756 16.1651 23.6059 20.3334 28.2 40.8844 56.2437 61.3133 84.3752q27.0369 37.2309 54.0014 74.5145 22.6965 31.2135 45.5449 62.3168c8.8669 12.098 17.9074 24.07 26.6908 36.2276 12.333 17.071 24.0674 34.5926 36.8526 51.3138 14.33 18.7418 27.6815 38.1848 41.9378 56.9744 9.4776 12.4916 18.2134 25.5436 27.42 38.2443 10.3366 14.26 21.021 28.27 31.2017 42.6388 10.7569 15.1817 21.8365 30.1346 32.7264 45.2135q15.0513 20.8408 30.44 41.4848c10.9766 14.6486 21.7606 29.4426 32.529 44.2457 10.0845 13.863 19.9837 27.8607 30.0639 41.7268 12.7746 17.5726 25.684 35.0472 38.4722 52.61q19.6538 26.9918 39.1992 54.0624c2.1357 2.94 2.394 5.08-.2226 8.4745-9.0463 11.7353-17.4206 23.9869-26.1184 35.993-7.8374 10.8189-15.79 21.5545-23.6454 32.36q-26.3344 36.223-52.6319 72.473c-11.4584 15.741-23.0375 31.3941-34.4868 47.1417-13.19 18.1414-26.2262 36.3942-39.4583 54.5044-12.63 17.2859-25.4966 34.3984-38.1282 51.6829-13.3322 18.2434-26.4884 36.6155-39.7606 54.9028q-18.2783 25.1847-36.6334 50.3134-13.2086 18.1752-26.3256 36.4165c-.65.9044-1.4592 1.8752-1.1467 3.1831h-2c-4.9794-1.9008-10.1569-.3643-15.2136-.8883-1.2285-.1274-2.8276.6094-3.5233-1.0291-.546-1.2858.5389-2.1394 1.2154-3.062 6.8354-9.3215 13.6976-18.6235 20.4928-27.9743 8.6111-11.85 17.1187-23.7746 25.7578-35.6037 12.9137-17.682 25.9772-35.255 38.839-52.9745 12.2022-16.8107 24.154-33.8032 36.3512-50.6175 10.8591-14.97 22.1374-29.6395 32.8041-44.7428 12.161-17.2193 24.7492-34.13 37.0571-51.2388q15.1729-21.0917 30.739-41.9489c13.0035-17.4986 25.4559-35.4054 38.2958-53.027 9.429-12.94 19.1716-25.6518 28.64-38.5643q12.8429-17.5152 25.375-35.2577c4.5665-6.4471 4.0731-6.278-.6849-13.3263-9.5153-14.0957-19.9239-27.53-29.8585-41.312-12.81-17.7708-25.8939-35.3436-38.7595-53.0745-10.4588-14.412-20.6871-28.9899-31.1652-43.3874-10.9742-15.0787-22.1892-29.9819-33.18-45.0488-10.592-14.5206-20.987-29.1848-31.5522-43.7251-8.6081-11.8469-17.416-23.549-25.9984-35.4142-12.6666-17.512-25.1608-35.1487-37.8264-52.6614-8.5043-11.7588-17.2027-23.377-25.7708-35.09q-21.318-29.1432-42.579-58.3279-13.68-18.7543-27.3326-37.5287c-8.6243-11.8727-17.1735-23.8-25.8372-35.6439-9.737-13.3125-19.617-26.521-29.342-39.8425-10.613-14.538-21.1049-29.1643-31.6762-43.7328-12.3782-17.0587-24.8237-34.0687-37.1687-51.1514-12.5521-17.3692-24.934-34.8619-37.5445-52.1884-12.3228-16.9313-24.8735-33.6966-37.2581-50.5832-6.2437-8.5135-12.3535-17.1252-18.4795-25.7242a8.8828 8.8828 0 0 1 -.817-2.3084z"/><path d="m704.131 1197.8518c-2.72-1.13-2.9962-2.4084-1.1063-4.9513q19.6144-26.39 38.9175-53.0115c10.3524-14.2481 20.4854-28.6557 30.8352-42.906 12.8947-17.7544 25.9519-35.3907 38.8642-53.1325 10.269-14.11 20.3738-28.34 30.6458-42.4479 10.7873-14.8154 21.72-29.5252 32.5278-44.3256 9.9022-13.56 19.7027-27.1943 29.585-40.7689 12.72-17.4726 25.53-34.88 38.2014-52.3881 9.3766-12.9559 18.512-26.0866 27.9047-39.0307 8.7211-12.0185 17.6445-23.89 26.472-35.8314q11.4488-15.4874 22.871-30.9939c1.6719-2.2761 1.9245-4.4557-.0068-6.9833q-10.2132-13.3667-20.0957-26.9852c-8.6834-11.9976-17.1006-24.1883-25.822-36.1577-9.0318-12.3954-18.3868-24.5553-27.4187-36.9506-6.9937-9.598-13.59-19.485-20.5706-29.0932-12.3213-16.96-24.8527-33.768-37.1994-50.71-13.9641-19.1615-27.779-38.4318-41.7383-57.5969-12.3392-16.9409-24.8508-33.7563-37.1706-50.7113-12.9155-17.775-25.6232-35.7012-38.5551-53.4643-9.0295-12.4028-18.3822-24.57-27.41-36.9747-9.1269-12.5409-17.9234-25.3225-27.0637-37.8533-8.9186-12.227-18.1978-24.1909-27.1206-36.4149-10.61-14.5344-20.9474-29.2667-31.513-43.8335-12.3987-17.0942-24.9436-34.0824-37.3731-51.1545-10.2574-14.0888-20.4018-28.26-30.6637-42.3453-12.42-17.0473-24.955-34.0107-37.3566-51.0714-9.307-12.8036-18.4348-25.7374-27.7289-38.55-8.82-12.1592-17.7409-24.2455-26.64-36.3476q-11.1408-15.1512-22.36-30.2443a6.192 6.192 0 0 1 -.9117-3.77h18c.4373 3.9653 3.7015 6.1241 5.8008 9.0159 12.5707 17.3161 25.3047 34.515 37.74 51.9275q18.3858 25.7445 37.0693 51.2722c10.3764 14.2338 20.626 28.5847 31.2923 42.6234 9.5719 12.5982 18.3065 25.8288 27.6138 38.6326 8.8145 12.1258 17.9752 24 26.8376 36.0911q22.9551 31.32 45.7267 62.7744c10.9245 15.0338 21.7826 30.1161 32.7063 45.1506q27.9454 38.4603 55.9397 76.8859c14.8556 20.3879 29.7984 40.7124 44.6124 61.13 12.6083 17.378 25.0077 34.9077 37.6471 52.2629 13.2824 18.2381 26.7929 36.31 40.1073 54.5249 14.7086 20.1224 29.2978 40.332 43.9576 60.49 11.8205 16.2538 23.7266 32.4456 35.4892 48.7411q18.9888 26.3061 37.7644 52.7656c6.6618 9.3871 6.6334 9.5029-.0437 19.065-10.9717 15.7118-22.39 31.0977-33.8341 46.47-10.2948 13.8289-20.0406 28.0651-30.1676 42.0206-12.3214 16.98-24.824 33.8279-37.1819 50.7812-10.7913 14.8045-21.45 29.7056-32.2417 44.51-11.0882 15.2107-22.3357 30.3055-33.3835 45.5452-8.7907 12.1262-17.0436 24.6567-26.1545 36.5326-11.2532 14.6681-21.7688 29.86-32.7583 44.712-12.1734 16.4521-24 33.16-36.0411 49.7106-8.5416 11.7412-17.2132 23.3879-25.7794 35.1115-7.864 10.7622-15.6319 21.5948-23.521 32.3385-1.5475 2.1074-3.4557 3.95-5.1975 5.9145z"/><path d="m806.131 1197.8518c-.4531-5.1194 3.5964-8.1849 6.09-11.5361 11.5288-15.4967 22.7514-31.206 34.002-46.902 9.1132-12.7141 18.721-25.0725 27.9279-37.721 12.4273-17.0722 24.612-34.3212 37.032-51.399 8.9274-12.2755 18.1522-24.3345 27.0935-36.6 10.0074-13.7283 19.7854-27.6235 29.7724-41.3668 9.5837-13.1883 19.3974-26.21 28.9465-39.4226 12.3573-17.0983 24.4687-34.3745 36.843-51.46 10.7456-14.8369 21.77-29.4718 32.5615-44.2758 12.3264-16.9095 24.5087-33.9241 36.7989-50.86 6.6715-9.1933 13.3461-18.3873 20.21-27.4365 2.4191-3.1893 2.3645-5.7987-.0029-8.9411-7.3336-9.7343-14.5426-19.5637-21.7171-29.4164-8.0534-11.06-15.9983-22.1983-24.0231-33.2788-13.6391-18.8323-27.5705-37.4487-40.8823-56.524-8.6879-12.4494-18.1727-24.34-27.1666-36.5791-8.7841-11.9536-17.3879-24.04-26.0895-36.0541q-13.79-19.04-27.617-38.0523-21.2765-29.2245-42.59-58.4223c-12.3551-16.9512-24.7544-33.8705-37.0414-50.8709-12.5473-17.3606-24.8824-34.875-37.4962-52.1867-10.3942-14.2654-21.1667-28.255-31.5731-42.5117-9.2366-12.6538-18.1042-25.5765-27.3078-38.2549-12.3173-16.9674-24.8679-33.7654-37.1952-50.7257-11.83-16.2755-23.8172-32.4385-35.6169-48.73q-21.7434-30.0205-43.6218-59.9418c-17.2278-23.568-34.2678-47.273-51.3996-70.911q-15.4749-21.3521-31.0077-42.6619a9.3311 9.3311 0 0 1 -1.93-3.9575h16a4.8828 4.8828 0 0 0 1.1023 4.0954q25.683 34.8662 51.2087 69.8482 22.1493 30.3533 44.1613 60.8063c12.4342 17.2277 24.319 34.87 37.2051 51.7494 19.4361 25.46 37.5826 51.852 56.8775 77.4113 10.3327 13.6873 20.1481 27.7687 30.4083 41.525 15.0745 20.2109 29.703 40.7552 44.463 61.2 17.0106 23.5622 33.8853 47.2228 50.9561 70.7412 12.305 16.9525 25.0448 33.5922 37.1917 50.6555 8.5893 12.0661 17.1957 24.1466 25.9793 36.0455 9.4949 12.8625 18.757 25.9245 28.5587 38.5838 5.3411 6.8982 10.1856 14.2822 15.2919 21.4164 9.3083 13.0051 18.8221 25.8629 28.2273 38.7989q18.918 26.02 37.8074 52.0608c6.7877 9.3283 13.6444 18.6064 20.446 27.9246 9.33 12.7823 18.6829 25.5482 27.921 38.3965 2.2053 3.0671 4.6212 5.9656 6.6215 9.2246 1.7336 2.8244 1.4276 4.5421-.4311 7.0577q-21.162 28.6422-42.0562 57.4822-22.4229 30.7719-44.8 61.5776-28.1136 38.5928-56.2507 77.1687c-13.5918 18.7073-27.0473 37.5137-40.6246 56.2317q-17.6951 24.3947-35.5283 48.689c-10.615 14.5018-21.3462 28.919-31.8933 43.47-10.2643 14.1607-20.2879 28.4955-30.5512 42.6568-9.1964 12.6892-18.5832 25.24-27.87 37.8644-3.4981 4.7553-6.95 9.5448-10.4225 14.3188z"/><path d="m.8974 159.618c6.0164 8.1642 11.6413 15.6876 17.148 23.2966 7.45 10.2935 14.7648 20.6842 22.2153 30.977q21.8736 30.2184 43.8478 60.3643c13.6356 18.6433 27.4784 37.1353 41.0828 55.8012 12.3444 16.937 24.4142 34.074 36.7465 51.02 10.9616 15.0624 22.1952 29.9268 33.1661 44.9825 12.0416 16.525 23.8861 33.1935 35.88 49.7536 10.9261 15.0868 21.9622 30.0928 32.9043 45.1678q24.147 33.2673 48.2446 66.5706c8.445 11.6045 17.1378 23.0292 25.5479 34.6586 12.7308 17.6039 25.1927 35.4028 37.9874 52.96 17.0009 23.3288 34.2181 46.5 51.3227 69.7534 1.5612 2.1224 2.8621 4.443 4.4974 6.5019 1.6715 2.1045 1.9095 3.65.1034 6.0965-11.8486 16.05-23.4105 32.3112-35.1774 48.4221-16.218 22.2054-32.7981 44.1517-48.7146 66.57-10.3106 14.5224-20.8821 28.8452-31.3739 43.23-12.7333 17.4581-25.1362 35.1516-38.2146 52.3659-10.3776 13.6594-19.994 27.8946-30.0792 41.7792-9.4786 13.0493-19.2256 25.9037-28.6789 38.9711-12.3457 17.0655-24.4354 34.3162-36.7907 51.3745-10.6456 14.698-21.5612 29.2-32.2626 43.8584q-18.3633 25.1532-36.4991 50.4715a5.3439 5.3439 0 0 1 -4.9931 2.4269c-10.3316-.0392-20.6634-.0042-30.995-.03-1.1159-.0028-2.5244.4414-3.2434-.68-1.01-1.5751.6966-2.3509 1.4092-3.3342q21.9325-30.263 43.9272-60.4807c19.433-26.6353 38.9872-53.1822 58.3653-79.8572 13.5566-18.6614 26.8174-37.5378 40.3706-56.2017 15.8906-21.8828 31.9509-43.6424 47.9457-65.4495 8.0977-11.04 16.2793-22.02 24.3053-33.1116 12.1779-16.83 24.1793-33.7883 36.3927-50.5924 12.5161-17.2206 25.2526-34.2809 37.7877-51.4878 9.3181-12.7909 18.3923-25.76 27.7637-38.5111 1.692-2.3023 1.2184-3.718-.2192-5.6813-8.2916-11.3237-16.5-22.7086-24.7318-34.0758-17.3242-23.9219-34.4243-48.01-52.0428-71.7136-12.6861-17.0672-24.8116-34.537-37.7993-51.3946-12.3766-16.0645-23.7842-32.874-35.6812-49.31-13.7222-18.9578-27.537-37.8486-41.2688-56.8-12.9775-17.91-25.8381-35.9048-38.8671-53.7771-9.223-12.6515-18.7248-25.1-27.9466-37.7523-8.1563-11.1906-16.0275-22.5886-24.1507-33.8037-11.213-15.4812-22.5774-30.8525-33.8171-46.3143q-24.1465-33.217-48.2206-66.4865-12.9543-17.7981-26.1403-35.4274c-1.0142-1.3628-1.891-2.5602-1.8831-4.3938.072-16.1633.0619-32.3269.1009-48.49a11.0784 11.0784 0 0 1 .7286-2.217z"/><path d="m.5127 298.0169c9.2583 12.7422 17.6789 24.3294 26.0973 35.9184q16.6176 22.8764 33.2272 45.7585c12.3642 17.0808 24.6521 34.2169 37.0446 51.2771 7.0808 9.7479 14.3421 19.3644 21.4543 29.09 12.9458 17.7021 25.8153 35.46 38.7645 53.1594 12.6464 17.2856 25.4228 34.4766 38.01 51.8049 10.2678 14.1348 20.2721 28.4608 30.5215 42.6091 8.9972 12.42 18.2248 24.6723 27.2555 37.068 10.9711 15.059 21.8044 30.2183 32.77 45.2812 7.3751 10.1307 14.9474 20.118 22.3012 30.2639 7.3476 10.1377 14.47 20.4386 21.8271 30.5692 2.2923 3.1564 1.6379 5.6456-.4926 8.5309q-22.51 30.4861-44.445 61.391c-13.3668 18.8151-27.4086 37.1493-41.0108 55.799-12.4273 17.0392-24.5751 34.2824-37.01 51.3158-12.5482 17.1878-25.4511 34.1178-37.9154 51.3653-11.5906 16.0388-23.0443 32.172-34.9528 47.982-7.8445 10.4147-15.393 21.0582-22.8746 31.7392-12.2835 17.5362-24.9949 34.7744-37.6393 52.036-12.4616 17.0118-24.59 34.2808-37.4123 51.0377-7.5191 9.826-14.7635 19.888-21.6144 30.188-3.16 4.7517-7.1546 5.1457-11.9586 4.7772-2.0994-.161-2.366-1.384-2.3648-3.0336.0095-12.8319.0362-25.664-.0227-38.4957a9.0989 9.0989 0 0 1 2.2251-5.4436c13.9888-19.203 28.0921-38.3228 42.0954-57.5154q25.948-35.5637 51.8021-71.1962c12.5462-17.1947 25.2681-34.2616 37.7532-51.5 15.8594-21.8979 31.4392-43.999 47.36-65.8522 16.9831-23.312 34.31-46.3733 51.3209-69.6654 12.2549-16.78 24.1973-33.7877 36.3591-50.636 6.0789-8.4212 12.1929-16.8259 18.5931-25.0015 2.21-2.8233 2.3824-5.03.3429-7.7841q-7.8041-10.5369-15.4912-21.16c-13.1753-18.1751-26.2759-36.4046-39.5029-54.542-10.2928-14.114-20.8067-28.067-31.0852-42.1912-12.91-17.7411-25.62-35.628-38.5294-53.37-12.21-16.7813-24.63-33.41-36.84-50.1918-12.2148-16.7894-24.2246-33.7277-36.432-50.5225-11.9406-16.4277-24.0576-32.727-36.0219-49.1376-10.8656-14.9034-21.6068-29.8975-32.448-44.8189q-9.1623-12.6107-18.4916-25.1c-1.6054-2.1486-3.0752-4.0903-3.0522-7.071.1305-16.6639.0581-33.3294.0768-49.9943.0016-1.1091.1832-2.2176.4059-4.7388z"/><path d="m1.1988 1071.1566c-1.5825-2.5342-1.0752-4.3985-1.08-6.1548-.0454-16.8293.0835-33.66-.1163-50.4874a14.36 14.36 0 0 1 3.097-9.127q21.7955-29.7366 43.5192-59.5257c17.8027-24.3724 35.7634-48.6317 53.35-73.1592q22.335-31.15 45.1184-61.9678c13.179-17.8768 26.0675-35.9675 39.1063-53.9479 1.2555-1.7314 1.1477-3.172-.133-4.9146q-15.0441-20.47-29.9586-41.0344-15.5928-21.3717-31.1974-42.7347-22.4462-30.8468-44.8379-61.7331c-12.2831-16.9492-24.4507-33.9825-36.8-50.883-9.1341-12.5-18.5565-24.7895-27.691-37.2893-3.7-5.0637-7.0778-10.3506-11.0359-15.2466a12.6156 12.6156 0 0 1 -2.5333-8.3242c.1806-17.3276.0727-34.658.1135-51.9873.0033-1.4109-.4924-2.9727 1.0085-4.6413 6.934 9.3052 13.8557 18.4176 20.5875 27.6683 10.6671 14.6584 21.1831 29.4267 31.8076 44.1163q16.969 23.4617 34.0271 46.8588c7.2877 9.9952 14.6865 19.9093 21.9773 29.9023q15.1435 20.7563 30.2 41.5766c8.3234 11.4724 16.6021 22.9776 24.96 34.4249q22.1352 30.317 44.33 60.59c6.81 9.3371 13.4725 18.7813 20.26 28.1346 1.4423 1.9874 2.413 3.3819.444 6.0208-11.358 15.2229-22.4047 30.6779-33.6035 46.02-12.5265 17.1613-25.1473 34.2541-37.6436 51.4375-10.5426 14.4971-20.9228 29.1122-31.4529 43.6186-12.5 17.22-25.1156 34.3561-37.6207 51.5724s-24.8773 34.526-37.4128 51.7184c-12.4376 17.0584-25.023 34.009-37.5078 51.0332-4.3677 5.9557-8.6289 11.9899-13.2817 18.4656z"/><path d="m.3973 576.0212c8.7669 11.9495 17.03 23.1561 25.2332 34.4064q19.3536 26.5424 38.751 53.0524c10.54 14.3722 20.8944 28.8919 31.4552 43.2582 10.55 14.3519 20.8719 28.872 31.4326 43.216 2.3466 3.1873 2.34 5.668-.0246 8.9116-17.291 23.7214-34.3747 47.5942-51.6253 71.3452-8.7112 11.9937-17.9236 23.632-26.3925 35.791-12.0528 17.3045-25.2508 33.7716-36.9826 51.3188-3.4243 5.1213-7.4943 9.9292-11.1823 15.1179-1.5754-1.68-.9305-3.5932-.9354-5.3036-.0537-18.992.0443-37.9851-.1116-56.9759a13.0711 13.0711 0 0 1 2.7765-8.2307q20.7354-28.3407 41.4341-56.7085c11.36-15.5347 22.6825-31.0977 34.174-46.5348 2.0888-2.806 2.3583-4.9013.2147-7.82-13.9674-19.0152-27.7733-38.1485-41.6643-57.2201-11.4335-15.6977-22.9319-31.3482-34.3418-47.063-1.3306-1.8321-2.5973-3.6462-2.5809-6.2757.1277-20.4907.0775-40.9825.0927-61.4741.0005-.6075.1155-1.2149.2773-2.8111z"/><path d="m.3531 794.293v-79.4381c5.2105 6.9115 10.1269 12.9307 14.4579 19.3451 3.15 4.6644 6.4091 9.2116 9.9321 13.5887 4.5374 5.6373 4.4566 7.4242.2989 12.9937-8.0466 10.7788-15.9652 21.6534-24.6889 33.5106z"/><path d="m684.931 0h11l546.743 751.09.194 4.819-317.937 441.091h-14l318.021-438.879.453-8.191z"/><path d="m773.27 1.227h10.831l538.348 751.09.19 4.818-313.054 441.092h-13.785l313.137-438.88.446-8.19z"/></g></svg>