<svg viewBox="0 0 751.4497 1192.4345" xmlns="http://www.w3.org/2000/svg"><g fill="#bed2ee"><path d="m.14 74.2266v-42q20.1459 2.9931 40.292 5.9848 25.3163 3.7486 50.6339 7.4872 28.51 4.2434 57.0128 8.5315 25.0658 3.7539 50.1305 7.5135 28.013 4.2164 56.0224 8.4564c17.0365 2.5526 34.0817 5.0474 51.1193 7.5922q28.0158 4.1845 56.0257 8.4081c16.8743 2.5153 33.76 4.9554 50.6312 7.4914 16.38 2.4621 32.7422 5.037 49.1213 7.5017 17.0349 2.5634 34.0849 5.026 51.12 7.5858 13.9257 2.0925 27.8323 4.3131 41.7607 6.3871 19.334 2.8791 38.6876 5.626 58.0193 8.52 16.2193 2.4282 32.4119 5.0356 48.63 7.474q29.4792 4.4322 58.9824 8.7038c10.4895 1.5233 20.9984 2.9126 31.4986 4.3623v29c-12.7633-.6134-25.3138-3.029-37.97-4.5474-12.986-1.5581-25.905-3.6666-38.8747-5.3721-19.0451-2.5043-38.1151-4.819-57.1633-7.3-16.9082-2.2023-33.8-4.5309-50.7015-6.7858-15.9221-2.1243-31.8516-4.1929-47.77-6.3449-18.539-2.5063-37.0618-5.1322-55.6056-7.6022-16.4146-2.1865-32.8576-4.1612-49.2711-6.3558-18.544-2.4794-37.06-5.1661-55.605-7.6392-16.4164-2.1893-32.8632-4.1508-49.2824-6.32-16.4144-2.1689-32.8106-4.475-49.2158-6.7133-14.1055-1.9246-28.2081-3.871-42.32-5.7481q-23.8864-3.1773-47.787-6.249c-14.12-1.8389-28.246-3.6273-42.36-5.5094-15.9187-2.1228-31.8245-4.3423-47.74-6.4881-13.7837-1.8585-27.5571-3.8169-41.3671-5.4637-12.6566-1.5093-25.1884-4.0705-37.9666-4.5608z"/><path d="m.14 21.2266c0-5.9819.11-11.967-.0551-17.9444-.0649-2.3477.327-3.1867 2.9851-3.1358 10.2985.1972 20.603.08 30.9054.08h111.1646c.1912 2.2478 1.96 1.7644 3.371 1.994q16.919 2.7539 33.829 5.5576c20.7511 3.4524 41.491 6.9731 62.25 10.3794 21.9 3.5936 43.822 7.0548 65.7246 10.6335 18.9645 3.0986 37.914 6.2891 56.8726 9.4238q32.1138 5.31 64.2321 10.5918 37.7594 6.2106 75.522 12.4024 35.3039 5.8093 70.6033 11.6453 28.4391 4.6893 56.8789 9.3735 35.0532 5.788 70.1057 11.5791c15.527 2.535 31.0735 4.9507 46.6113 7.42v30c-13.4461-.5882-26.6064-3.4129-39.8829-5.2684-25.745-3.5982-51.4021-7.8217-77.12-11.6231-23.917-3.5353-47.8763-6.7834-71.7964-10.2978-21.623-3.177-43.21-6.6-64.828-9.81-21.1292-3.1367-42.2894-6.0642-63.4147-9.2265-16.3747-2.451-32.6985-5.2457-49.0774-7.6669-23.9189-3.5357-47.88-6.7843-71.7991-10.3211-23.4249-3.4638-46.8055-7.2267-70.23-10.692-28.1782-4.1686-56.3892-8.114-84.5731-12.2448-24.2454-3.5536-48.4739-7.2228-72.7073-10.8583-17.19-2.579-34.3453-5.4247-51.5759-7.6976-11.3209-1.4933-22.4827-4.3229-33.9957-4.2937z"/><path d="m.14 127.2266v-41c16.3866 2.3272 32.7639 4.7235 49.1626 6.962 16.0848 2.1957 32.1961 4.1968 48.2874 6.3463 16.4167 2.1929 32.82 4.4867 49.2351 6.6914 15.9261 2.139 31.8647 4.1852 47.7889 6.3377 16.0853 2.1743 32.1583 4.4394 48.2393 6.6457q20.9217 2.87 41.8492 5.6987 23.147 3.1455 46.2954 6.2816 24.8637 3.3619 49.73 6.7062c10.5068 1.4208 21.0076 2.8871 31.5174 4.2846 14.4464 1.921 28.9037 3.76 43.3473 5.7018 12.8049 1.7212 25.5942 3.5586 38.3965 5.3q21.4143 2.9126 42.8394 5.7451 19.7061 2.6355 39.4135 5.2625 21.177 2.8329 42.3522 5.68c17.8936 2.4255 35.78 4.9053 53.6752 7.3173 13.955 1.881 27.91 3.7644 41.8817 5.5164 12.3248 1.5456 24.5573 3.8543 36.9892 4.5228v28c-6.85.277-13.5136-1.3371-20.2656-2.0382-12.3555-1.283-24.6906-2.7682-37.0276-4.2243-15.9493-1.8825-31.8875-3.8583-47.8392-5.72-12.67-1.4786-25.36-2.7759-38.027-4.28-18.4161-2.1865-36.814-4.5264-55.2288-6.724-12.6634-1.5113-25.3485-2.8393-38.0124-4.3468-12.4954-1.4874-24.9682-3.1659-37.4658-4.6347-12.67-1.489-25.3666-2.7575-38.0374-4.243-15.9512-1.87-31.8836-3.9-47.8326-5.79-12.5017-1.4812-25.0227-2.8-37.5235-4.2893-12.6581-1.5076-25.2963-3.1828-37.9537-4.6965-12.3359-1.4752-24.6893-2.8035-37.0274-4.2606-15.9493-1.8835-31.8873-3.8624-47.8373-5.74-12.3381-1.4527-24.6935-2.759-37.0294-4.23-12.8225-1.5292-25.6221-3.2506-38.4475-4.7542-12.8325-1.5044-25.6928-2.7707-38.5255-4.2734-15.786-1.8484-31.5553-3.8384-47.333-5.7581-13.147-1.6-26.2894-3.24-39.4456-4.7611-10.0375-1.161-20.0932-2.1632-30.141-3.2359z"/><path d="m.14 180.2266v-39c5.1182.43 10.253.7188 15.3515 1.3167 15.6247 1.8322 31.2315 3.8163 46.8527 5.6784 14.9686 1.7842 29.951 3.4528 44.9193 5.24q23.6775 2.8272 47.34 5.7831c12.3268 1.5187 24.6472 3.0893 36.9752 4.598q22.197 2.7165 44.4029 5.3593c12.5054 1.4772 25.0255 2.8312 37.53 4.3189 15.6237 1.8587 31.2341 3.83 46.8574 5.6931 12.34 1.4715 24.6957 2.8032 37.0336 4.2869 15.4554 1.8586 30.8937 3.8606 46.3507 5.7054 15.1354 1.8064 30.29 3.4474 45.4268 5.2452 15.7859 1.875 31.5578 3.8667 47.3395 5.7773 14.637 1.7721 29.2819 3.48 43.9179 5.2612 15.4506 1.88 30.8888 3.864 46.3437 5.7084 15.1332 1.806 30.2861 3.447 45.42 5.2454 15.7858 1.8757 31.5588 3.8579 47.3386 5.7841 12.6576 1.5451 25.3009 3.2259 37.98 4.5686 11.2015 1.1863 22.303 3.3855 33.6206 3.43v27c-1.831-.0369-3.6752.0546-5.491-.131-15.6541-1.6-31.3016-3.2635-46.9539-4.88-10.5492-1.09-21.1055-2.1111-31.6541-3.2061-15.1573-1.5734-30.3081-3.2094-45.4663-4.7741-10.879-1.1229-21.7691-2.1392-32.6479-3.2636-14.9941-1.55-29.98-3.1806-44.9737-4.73-11.0435-1.1414-22.0992-2.1652-33.1412-3.3193-14.4972-1.5154-28.9816-3.1535-43.48-4.6517-11.5385-1.1923-23.0968-2.1936-34.6349-3.3888-14.3327-1.4848-28.6484-3.1331-42.9814-4.6141-11.2093-1.1582-22.4387-2.1211-33.65-3.2572-15.3242-1.5529-30.64-3.1912-45.96-4.7866q-16.3137-1.6989-32.6288-3.383c-14.6627-1.5292-29.3213-3.0978-43.9873-4.5942-11.2111-1.1439-22.4363-2.15-33.6455-3.3116-14.662-1.52-29.31-3.175-43.9724-4.6905-11.3747-1.1757-22.7683-2.1688-34.1427-3.3469-14.4976-1.5016-28.9784-3.1655-43.4776-4.65-11.3768-1.1652-22.7788-2.0845-34.1546-3.2577-14.6606-1.5131-29.3056-3.1694-43.9571-4.7636z"/><path d="m751.14 274.2266v25c-4.1955.4962-8.2585-.6905-12.3915-1q-19.5923-1.4666-39.1685-3.1466-27.492-2.3625-54.9711-4.8771c-8.7525-.7924-17.4971-1.6178-26.2671-2.2587-17.5146-1.28-34.9864-3.1419-52.4794-4.724-8.5879-.7767-17.1861-1.4381-25.7754-2.1994-14.0286-1.2434-28.05-2.5654-42.0815-3.78-12.885-1.1157-25.7841-2.0687-38.6665-3.2128-13.3671-1.187-26.7157-2.5826-40.0831-3.7662-12.8821-1.1408-25.7818-2.083-38.6667-3.1937-14.3624-1.2381-28.7148-2.591-43.0753-3.85-12.3862-1.0862-24.7825-2.0582-37.1657-3.1764-17.1618-1.55-34.31-3.2523-51.4744-4.7689-13.0481-1.1528-26.1183-2.0541-39.1688-3.1816q-27.2418-2.3535-54.4677-4.89-13.3759-1.2384-26.7685-2.2408c-17.3476-1.2944-34.6521-3.1607-51.98-4.7328-8.7531-.7941-17.5193-1.4431-26.2765-2.1931-16.6787-1.4284-33.2778-3.899-50.0721-3.8067v-39c3.4591.3348 6.92.6522 10.3771 1.0074q16.0743 1.6518 32.1458 3.3314c14.5 1.5357 28.9937 3.1317 43.4952 4.6522 11.2085 1.1752 22.429 2.2351 33.6368 3.4165 14.1718 1.4937 28.3321 3.0974 42.505 4.58 11.0457 1.1556 22.11 2.13 33.1533 3.3093 14.0018 1.4947 27.9815 3.1992 41.9869 4.6572 14.51 1.5105 29.0456 2.7695 43.5578 4.2581 14.8331 1.5215 29.6495 3.2055 44.4767 4.7857 10.7132 1.1418 21.4351 2.2023 32.1476 3.3492 14.1683 1.517 28.3265 3.1286 42.4981 4.613 11.0484 1.1572 22.116 2.13 33.1654 3.2788 14.8309 1.5415 29.6506 3.1906 44.4786 4.76 10.5506 1.1169 21.109 2.16 31.66 3.27q22.2438 2.3409 44.4828 4.7288c10.55 1.1145 21.104 2.1855 31.6535 3.3018 14.664 1.5517 29.322 3.161 43.9891 4.6823 10.8829 1.1288 21.7853 2.073 32.6626 3.2509 13.8338 1.4982 27.6454 3.2017 41.4771 4.7209 15.811 1.7366 31.6333 3.3681 47.4504 5.0453z"/><path d="m.14 287.2266v-38c9.7088.9971 19.41 2.0791 29.1284 2.97 12.5449 1.15 25.1082 2.0992 37.6558 3.2217 17.4914 1.5649 34.974 3.2294 52.4638 4.8129 8.5849.7772 17.1828 1.4123 25.7656 2.2111 13.0289 1.2126 26.0431 2.5859 39.0758 3.753 12.8786 1.1532 25.7781 2.0709 38.6582 3.2078 17.6582 1.5586 35.3055 3.24 52.96 4.8417 8.4207.7638 16.8512 1.4218 25.27 2.2033 13.1945 1.2247 26.3775 2.5756 39.5757 3.7572 12.7138 1.1383 25.4456 2.0732 38.16 3.201 13.6958 1.2147 27.3787 2.5757 41.0717 3.8246 12.05 1.0989 24.1085 2.0991 36.1579 3.2014 13.3623 1.2224 26.7141 2.56 40.0785 3.7572 12.5488 1.1245 25.1126 2.0808 37.6615 3.2046 13.6952 1.2265 27.3772 2.6 41.0716 3.8355 12.3823 1.1171 24.78 2.0673 37.1595 3.212 16.4945 1.5251 32.9723 3.2326 49.4686 4.7379 12.7113 1.16 25.4468 2.0544 38.16 3.2012 17.1586 1.5478 34.3055 3.2245 51.4574 4.8459v24c-6.7977-.3764-13.6025-.6544-20.3916-1.1486-16.87-1.228-33.73-2.5966-50.6-3.8267-10.7581-.7845-21.5312-1.3625-32.29-2.14-17.3686-1.2548-34.7289-2.6242-52.0965-3.8934-10.2608-.75-20.5346-1.3268-30.7925-2.1116-16.036-1.227-32.0581-2.6378-48.0966-3.83-11.2546-.8364-22.5372-1.3021-33.7886-2.1748-18.0259-1.3982-36.0259-3.1017-54.0945-3.9613-9.4425-.4492-18.8643-1.34-28.2942-2.0493-17.033-1.28-34.0626-2.6074-51.0984-3.85-10.5929-.7725-21.1982-1.374-31.7912-2.1432-17.3688-1.2613-34.73-2.6236-52.0985-3.89-10.2616-.7483-20.5361-1.324-30.7952-2.1032-16.2035-1.2308-32.394-2.6334-48.5994-3.8364-11.09-.8232-22.2155-1.2069-33.29-2.1819-22.4766-1.9786-44.9817-3.502-67.4966-4.9443-9.6-.615-19.1866-1.4726-28.7862-2.1493-18.8621-1.3291-37.68-3.2815-56.6-3.766z"/><path d="m751.14 360.2266v23c-2.9985-.0328-6.0149.1359-8.9925-.1305-21.8242-1.9524-43.7174-2.708-65.5833-3.9439-12.4282-.7025-24.8447-1.5366-37.2843-2.1109-19.5471-.9024-39.0573-2.5767-58.5947-3.7295-11.263-.6647-22.533-1.1437-33.7948-1.9189q-35.0136-2.41-70.0779-4.07c-16.743-.8192-33.4669-1.8416-50.1934-2.9384-21.0389-1.38-42.1293-1.9676-63.171-3.3123-6.4681-.4133-12.9357-.6112-19.3994-.9755-21.866-1.2326-43.7231-2.6213-65.5868-3.8963-12.76-.744-25.5293-1.3382-38.29-2.0829-21.697-1.2664-43.3891-2.6172-65.0857-3.8921-7.2939-.4286-14.6077-.5684-21.89-1.1267-22.1733-1.7-44.3787-2.8-66.5823-3.9851-6.7979-.3628-13.615-.5306-20.3923-1.0536-22.0052-1.6981-44.0385-2.8271-66.0816-3.8334v-36c11.4257.7024 22.8545 1.3592 34.2763 2.1215 9.099.6072 18.1917 1.3136 27.283 2.0287 16.0291 1.2609 32.0512 2.6117 48.0835 3.8287 10.5865.8035 21.192 1.3588 31.7781 2.1681 15.8647 1.2128 31.7153 2.61 47.5805 3.8156 10.752.8172 21.5234 1.3765 32.2777 2.1655 17.0291 1.25 34.0495 2.6164 51.0768 3.8915 10.0891.7556 20.1885 1.377 30.2759 2.1537 16.03 1.2344 32.05 2.5955 48.0807 3.8118 10.5858.8031 21.1895 1.3725 31.7752 2.1786 16.03 1.2207 32.0489 2.5994 48.0789 3.8273 10.2543.7856 20.5261 1.3426 30.7793 2.1411 15.6978 1.2226 31.3807 2.637 47.08 3.8321 10.9175.8311 21.8579 1.359 32.7788 2.15 17.1959 1.2463 34.39 2.5207 51.5727 3.939q15.3786 1.2693 30.7758 2.2c16.0462.9551 32.0555 2.5193 48.0865 3.7461 10.2547.7847 20.5251 1.3644 30.78 2.1467 16.1977 1.2364 32.3876 2.5649 48.5803 3.854z"/><path d="m.14 393.2266v-35c13.5652.9725 27.1165 2.317 40.6991 2.8228 16.7656.6244 33.4657 2.1677 50.2047 2.9728 17.0844.8216 34.1331 2.0753 51.2018 3.0467 16.9036.9619 33.8 2.0284 50.7008 3.0113 22.2035 1.2913 44.4092 2.495 66.6012 4.0082 16.39 1.1175 32.8015 2.0346 49.2039 2.9255q34.5607 1.8771 69.0922 4.1544c15.8962 1.0411 31.79 2.16 47.7007 2.9273 22.3849 1.08 44.74 2.5844 67.1061 3.9574 16.3986 1.0067 32.7948 2.1165 49.1975 2.9982 22.8751 1.23 45.7414 2.52 68.5983 4.0636 19.5467 1.32 39.1467 1.8732 58.6827 3.312 6.4758.477 12.9433.5486 19.4068.94q31.3043 1.8934 62.6042 3.86v22c-12.2633-.639-24.52-1.5676-36.7915-1.845-15.9458-.3606-31.8576-1.2866-47.7845-1.9594s-31.8547-1.2846-47.781-2.0229c-15.7558-.73-31.5209-1.3284-47.2814-1.9889-15.0968-.6326-30.1889-1.4925-45.2824-1.9713-24.0723-.7635-48.1117-2.1286-72.171-3.0477-15.2668-.5831-30.5211-1.4155-45.7816-1.9733-23.7327-.8675-47.45-1.9877-71.1733-3.0191-15.26-.6635-30.5207-1.3549-45.7811-1.9775-23.8924-.9747-47.784-1.9047-71.672-3.0175-15.4228-.7185-30.8543-1.335-46.282-1.9953-23.8894-1.0223-47.785-1.861-71.6724-2.9992-15.4208-.7347-30.8554-1.2151-46.2791-2.0372-18.4079-.9813-36.8431-1.4533-55.2667-2.1459z"/><path d="m.14 447.2266v-35a47.6951 47.6951 0 0 0 6.358.8972c13.7936.1414 27.5363 1.4149 41.3012 1.8895 22.9127.79 45.7965 2.0645 68.6958 3.0476 14.4354.62 28.8644 1.3222 43.2964 1.9787 22.8961 1.0415 45.8 1.8886 68.6947 3.0284q21.1437 1.0527 42.299 1.9734c22.732 1.0023 45.4715 1.7826 68.1942 3.0638 14.2551.8038 28.5349 1.1386 42.7984 1.9544 23.0476 1.3182 46.1226 2.1784 69.1914 3.0976 14.2705.5687 28.5376 1.0757 42.8005 1.9113 22.5466 1.3209 45.119 2.2815 67.6924 3.0378 13.4485.4506 26.8681 1.2608 40.3 1.95 25.549 1.3108 51.1234 2.1254 76.6863 3.167q36.3465 1.4808 72.6912 3.0033v21c-5.8078-.172-11.6308-.6458-17.4052-.7577-24.267-.47-48.5269-.9435-72.7736-2.1324-13.1159-.6432-26.2522-.3065-39.3927-.8114-23.0782-.8868-46.188-1.066-69.27-2.1832-13.2818-.6428-26.5849-.3143-39.8916-.8254-23.0783-.8864-46.1883-1.0529-69.2707-2.1687-13.2817-.6421-26.5863-.35-39.8912-.8306-24.2456-.8766-48.512-1.4-72.77-2.0889-23.4256-.6652-46.86-.9564-70.2748-2.0873-12.9493-.6254-25.92-.3463-38.8919-.82-23.2474-.8488-46.5132-1.4494-69.7719-2.0819-24.7575-.6733-49.5183-1.1037-74.2733-2.0444-21.7729-.8275-43.576-.8844-65.367-1.1967-3.9145-.056-7.8456-1.8117-11.7556.0286z"/><path d="m.14 500.2266v-34a31.2661 31.2661 0 0 0 4.8442.94c18.595.7106 37.1933 1.3354 55.79 2.0065 10.7965.39 21.597.3344 32.4036.7556 22.0837.861 44.1863 1.4514 66.282 2.1162 21.5966.65 43.193 1.2537 64.789 1.9614 23.2572.7622 46.5235 1.3349 69.7855 2.0366 21.4306.6464 42.8591 1.4123 64.2892 1.9742 23.7646.6231 47.5261 1.2781 71.2814 2.176 9.4644.3578 18.9368.3907 28.4049.734 22.4207.8129 44.8626 1.1238 67.2807 2.2144 10.9561.5331 21.9276.3473 32.9019.7892 21.9157.8826 43.8535 1.48 65.7833 2.1016 21.4325.6069 42.8605 1.1829 64.2881 2.0162 20.9423.8145 41.9162.8185 62.8763 1.1782v20c-9.9684-.3024-19.9369-.35-29.9117-.74-26.1075-1.021-52.2486.0775-78.39-1.0283-28.5987-1.21-57.25.2728-85.8885-1.01-26.0983-1.169-52.25.2019-78.3909-.9975-25.5976-1.1746-51.248.0946-76.8913-.981-29.4312-1.2345-58.9172.303-88.3875-1.0361-25.4329-1.1557-50.9154.1233-76.3925-.9646-29.2635-1.25-58.5832.2836-87.8866-1.0342-25.6-1.1513-51.2486.0691-76.8927-.9323-23.9565-.9361-47.9763-.249-71.9684-.2761z"/><path d="m.14 553.2266v-32c7.8063.0871 15.6.4684 23.3981.79 20.94.8631 41.9048-.0754 62.8779.973 23.7536 1.1873 47.5713-.2278 71.37 1.0324 21.09 1.1169 42.238-.1886 63.3765.979 20.9185 1.1554 41.9025-.0666 62.8748.9947 23.7536 1.2021 47.57-.2585 71.37 1.0188 21.0881 1.1317 42.2379-.1546 63.3757.991 21.42 1.1611 42.9029-.0985 64.3752.9838 22.9206 1.1553 45.9048-.21 68.8711 1.0313 20.5895 1.1124 41.236-.08 61.8773.9583 23.5857 1.1869 47.2363-.106 70.87 1.032 22.091 1.0636 44.2637-.6078 66.3633 1.2158v18c-99.9277.454-199.854-.3253-299.7862.7513-118.7453 1.2794-237.5087-.6335-356.26 1.1094-31.6451.4644-63.3021.1149-94.9537.1392z"/><path d="m.14 575.2266c2.8764 1.0171 5.8614.941 8.8522.941q367.5759-.0032 735.1518.0155c2.332 0 4.664.0285 6.996.0435v17c-14.66.0258-29.3583-.6112-43.97.2418-19.1425 1.1174-38.3-.1635-57.3867.9752-18.3094 1.0922-36.6342-.1209-54.8858 1.0053-18.9758 1.1708-37.9639-.1165-56.8858.9931-18.9743 1.1127-37.9656-.1161-56.8851 1.0149-17.478 1.0448-34.9658-.1-52.3883.9691-20.1374 1.2356-40.2961-.1086-60.3826 1.0361-17.9787 1.0246-35.9688-.1484-53.8873.98-18.1428 1.1428-36.3008-.1238-54.3869.9985-19.6408 1.2187-39.2969-.1408-58.8853.9986-18.4751 1.0746-36.9666-.1026-55.3848 1.0177-17.9779 1.0935-35.9652-.1043-53.8882.9728-19.9714 1.2-39.956-.0209-59.8833 1.0461-10.6465.57-21.2689.4713-31.9.75z"/><path d="m.14 630.2266c33.1336-.4614 66.2766-.6727 99.3989-1.335 21.808-.4361 43.6421.2735 65.4065-.891 21.65-1.1584 43.31.1553 64.91-.9844 24.1463-1.274 48.3074.1689 72.4091-1.0112 22.3153-1.0928 44.6424.142 66.9092-1.0013 23.4811-1.2056 46.9739.1492 70.4093-.9989 22.315-1.0932 44.6445.1576 66.9083-1.019 19.8193-1.0474 39.6351.0413 59.4137-.9088 26.4706-1.2716 52.9692.0127 79.4055-1.1153 21.1526-.9024 42.3052.1145 63.41-.9562 14.1512-.7179 28.2809-.5328 42.42-.7789v16c-18.8186-.7006-37.5912.9762-56.39 1.3249-7.9445.1473-15.9391.43-23.9086.6931-22.9319.7568-45.8577 1.6446-68.7986 2.2108-18.935.4673-37.8688 1.32-56.8069 1.94-21.4347.7018-42.8735 1.2822-64.3041 2.0325-18.7686.6572-37.5293 1.4444-56.3074 1.9386-21.6026.5684-43.2021 1.3854-64.8007 2.1087q-25.1526.8421-50.3143 1.7368c-23.7633.8182-47.5462 1.1366-71.2986 2.1758-19.7657.8646-39.5329 1.4215-59.3049 2.0247-19.9356.6083-39.87 1.3466-59.8058 2s-39.8665 1.3963-59.8054 1.9951c-18.1031.5435-36.1968 1.513-54.3108 1.88a28.1438 28.1438 0 0 0 -4.8438.9389z"/><path d="m.14 684.2266c20.6208-.3595 41.2551-.3725 61.8586-1.1758 20.7574-.8092 41.5152-1.3947 62.2774-2 23.2572-.678 46.5214-1.2561 69.767-2.1214 11.1363-.4146 22.2739-.25 33.3937-.7908 22.58-1.0982 45.1872-1.3505 67.7666-2.2146 10.47-.4007 20.939-.2913 31.3962-.7608 23.2472-1.0438 46.5115-1.5019 69.7654-2.2375 8.96-.2835 17.934-.4306 26.8985-.7241 25.2518-.8267 50.5023-1.631 75.7637-2.208 21.0917-.4818 42.1835-1.3033 63.2769-1.9445 23.59-.7172 47.184-1.2952 70.7709-2.0345 21.925-.6872 43.8393-1.5683 65.7778-1.922 17.4346-.2812 34.8586-1.22 52.2873-1.8661v15c-22.1047.1872-44.165 1.3526-66.2131 2.88-7.6212.5278-15.2633.38-22.9121.8908-18.2347 1.2172-36.5386 1.3554-54.7926 2.3368-21.0664 1.1323-42.1249 2.294-63.2108 3.0916-13.7687.5207-27.5359 1.33-41.3079 1.9632-21.2385.9759-42.4659 2.1515-63.7123 3.0382-20.4066.8517-40.8028 2.048-61.2108 2.9911q-31.358 1.449-62.7148 2.979-20.6541 1.0028-41.3087 1.9928c-21.2378.9944-42.4706 2.0838-63.7115 3.0453q-30.609 1.3857-61.215 2.9564c-20.9029 1.0721-41.81 1.9919-62.7141 3.0055-14.1026.6839-28.1985 1.43-42.3087 2.0067-12.9377.5292-25.8508 1.714-38.8134 1.9175a28.5354 28.5354 0 0 0 -4.854.9052z"/><path d="m212.14.2266h224c.046 1.5469 1.1054 1.7563 2.3566 1.9708q14.6966 2.52 29.3753 5.1441 49.6551 8.93 99.3038 17.8964 47.947 8.6087 95.9066 17.1479 44.0338 7.8942 88.0577 15.8408v31a59.2009 59.2009 0 0 1 -6.4609-.3559c-19.6242-3.1717-39.2322-6.444-58.853-9.6371-21.4228-3.4863-42.8617-6.8744-64.28-10.3893-19.13-3.1394-38.2356-6.425-57.3616-9.5879-19.9393-3.2974-39.8922-6.5117-59.835-9.7879-14.39-2.3638-28.7629-4.83-43.1608-7.1426-23.7192-3.8093-47.4669-7.4427-71.1759-11.3134-25.341-4.1372-50.6357-8.5583-75.9787-12.6833-32.0517-5.217-64.1412-10.2035-96.1751-15.526-1.8307-.3042-5.0257.8507-5.719-2.5766z"/><path d="m.14 738.2266c8.918.6562 17.8151-.0862 26.7172-.4234 1.6509-.0625 3.29-.4464 4.9407-.5049 20.7652-.7354 41.5439-1.1941 62.2936-2.2334 14.2672-.7147 28.5348-1.3519 42.8036-2.0042q22.4015-1.0244 44.803-2.0114 23.15-1.0491 46.3006-2.02c14.6009-.6326 29.1974-1.3817 43.8034-1.9871 15.1018-.6263 30.2014-1.3527 45.3039-2.0072 14.768-.64 29.5419-1.2347 44.3036-1.9718 22.5647-1.1266 45.1343-2.0444 67.7045-3.0127 15.1011-.648 30.2055-1.2881 45.3022-2.0046 22.2336-1.055 44.461-2.1527 66.7058-3.0015 14.7673-.5635 29.5317-1.349 44.3013-1.9851 22.902-.9866 45.7916-2.2081 68.7048-3.03 14.1007-.5056 28.1986-1.3439 42.3029-1.9682 15.6008-.6906 31.1846-1.73 46.8074-1.947a77.9207 77.9207 0 0 0 7.9015-.8874v13c-15.8719 1.3763-31.7765 2.2111-47.678 3.16-21.1989 1.2656-42.3733 2.9283-63.5919 3.9514-15.5754.751-31.1352 1.8639-46.6914 2.9662-21.684 1.5364-43.3879 2.7453-65.0789 4.1318q-31.0443 1.9845-62.0938 3.9069c-21.3622 1.3157-42.7047 2.9049-64.0814 4.0526-15.5681.8359-31.1151 2.1255-46.694 2.94-21.2067 1.1091-42.3928 2.6168-63.587 3.9657-15.3971.98-30.7918 1.9972-46.19 2.9661-21.527 1.3547-43.0713 2.4743-64.579 4.0856-15.8882 1.19-31.7973 1.9447-47.6889 2.9971q-32.0377 2.1217-64.0855 4.0419c-21.0326 1.2463-42.0315 3.0731-63.0921 3.9274a50.835 50.835 0 0 0 -5.8685.9065z"/><path d="m.14 793.2266q31.5443-1.9515 63.0892-3.8926c12.428-.7459 24.8625-1.3837 37.294-2.073 20.8742-1.1575 41.7622-2.0589 62.5984-3.8773 6.7743-.5913 13.5922-.4806 20.4011-.9746 19.5365-1.4173 39.1213-2.16 58.6826-3.2481 16.9015-.94 33.8022-1.9072 50.6937-3.0107 22.8555-1.4931 45.711-2.9291 68.5867-4.1246 16.4013-.8571 32.8-1.9242 49.1973-2.9355 22.6945-1.4 45.3758-2.9623 68.0935-4.0011 15.91-.7276 31.7967-1.9557 47.6977-2.8938 23.3619-1.3784 46.7447-2.453 70.0849-4.1256 16.3914-1.1747 32.8031-1.893 49.1943-2.9637 23.1887-1.5147 46.3753-2.9568 69.5894-4.063 11.9308-.5687 23.8152-2.13 35.7972-1.8164v11l-751 59z"/><path d="m.14 847.2266c18.929-.3826 37.7586-2.1941 56.6024-3.8492 9.9173-.871 19.8649-1.393 29.7946-2.13 16.3745-1.2146 32.7588-2.2575 49.1192-3.7241 10.0706-.9028 20.1952-1.3749 30.2873-2.2236 17.3561-1.46 34.7305-2.7076 52.1038-3.9536 11.0927-.7956 22.2054-1.32 33.2944-2.1593 15.3768-1.1638 30.7365-2.5514 46.11-3.7619 10.0924-.7946 20.1986-1.4112 30.294-2.1693 17.0362-1.2793 34.0667-2.6336 51.1035-3.9055 10.0951-.7537 20.2015-1.3577 30.2958-2.1211 16.5378-1.2507 33.0673-2.6116 49.6054-3.8576 10.26-.7729 20.5339-1.36 30.7935-2.1368 16.3718-1.24 32.733-2.6193 49.1062-3.8393 10.924-.8139 21.8665-1.38 32.7909-2.1887 16.373-1.2127 32.7364-2.5558 49.1061-3.8159 9.5956-.7387 19.1963-1.4113 28.7931-2.1356 17.2019-1.2984 34.4-2.6467 51.6046-3.9094 10.4273-.7654 20.857-1.5469 31.2985-2.0564 6.3027-.3074 12.5453-1.6916 18.8967-1.0632v10c-16.3243 1.5962-32.6457 3.2218-48.9737 4.7786-11.7171 1.1172-23.4452 2.1191-35.1644 3.2147-13.3617 1.249-26.7164 2.5735-40.0791 3.812-11.8863 1.1017-23.7839 2.0818-35.6681 3.2051-12.6994 1.2-25.3837 2.5616-38.0842 3.7483-12.2163 1.1415-24.451 2.0869-36.6669 3.2319-16.4972 1.5464-32.98 3.2449-49.4768 4.795-12.05 1.1322-24.1179 2.0727-36.1681 3.2019-16.6638 1.5615-33.3142 3.2677-49.9787 4.8214-12.2168 1.1391-24.4543 2.0569-36.67 3.21-16.001 1.5106-31.9856 3.1928-47.9843 4.7283-8.5839.8239-17.1872 1.4439-25.7733 2.2461-16.8277 1.572-33.647 3.2348-50.4748 4.8067-11.8862 1.11-23.7851 2.0848-35.67 3.2075-12.7 1.2-25.3859 2.5507-38.0862 3.7466-12.0493 1.1345-24.1138 2.1073-36.1638 3.2353-16.6623 1.56-33.3145 3.228-49.9763 4.7927-11.884 1.1161-23.7751 2.157-35.6662 3.1954-8.089.7064-16.1835 1.3507-24.2755 2.0225z"/><path d="m.14 902.2266c13.3632-1.264 26.7235-2.559 40.0906-3.7809 8.5891-.7852 17.1922-1.4179 25.7819-2.1981 17.4974-1.59 34.9855-3.2843 52.4862-4.8368 12.8865-1.1431 25.793-2.0618 38.68-3.2041 13.3709-1.1852 26.7251-2.5571 40.0931-3.7767 12.2206-1.1149 24.4528-2.1027 36.6746-3.2053 17.4971-1.5786 34.987-3.2373 52.4846-4.8108 12.222-1.0991 24.4547-2.0786 36.6773-3.1718 17.83-1.595 35.652-3.2779 53.4833-4.8582 12.5539-1.1126 25.1231-2.0542 37.6753-3.1855 17.0016-1.5323 33.9911-3.1986 50.99-4.757 8.5878-.7874 17.1889-1.4278 25.7784-2.1973 17.8311-1.5974 35.6554-3.2694 53.4882-4.8474 12.5551-1.111 25.1252-2.0539 37.6783-3.1862 17.0026-1.5335 33.9927-3.2046 50.993-4.7635 12.0556-1.1054 24.1213-2.0991 36.1786-3.1851 14.0316-1.2637 28.0538-2.6353 42.09-3.8461 13.2189-1.14 26.4506-2.132 39.6766-3.1892v9q-21.9791 2.3951-43.9584 4.7886c-9.8843 1.0726-19.7721 2.1141-29.6553 3.197-14.4882 1.5874-28.9707 3.2273-43.4612 4.7927-13.3436 1.4414-26.6993 2.7717-40.0412 4.2276-17.2864 1.8862-34.5594 3.8942-51.8476 5.7634-13.6726 1.4783-27.3664 2.7613-41.038 4.2492-16.9571 1.8456-33.8955 3.8626-50.8524 5.71-10.8724 1.1847-21.77 2.1407-32.645 3.3008-13.9983 1.4931-27.9843 3.1023-41.9786 4.634-10.3754 1.1357-20.7579 2.2067-31.133 3.3448-13.9943 1.5351-27.9814 3.1359-41.9775 4.6534-10.7077 1.1608-21.4291 2.1936-32.1361 3.36-13.9958 1.5243-27.9783 3.1707-41.9758 4.6784-13.8379 1.49-27.69 2.8436-41.5306 4.3125q-20.2632 2.1507-40.5146 4.4136-16.0512 1.7637-32.0987 3.5627-20.7424 2.2995-41.4855 4.5957c-9.8769 1.1-19.7477 2.2561-29.6283 3.3215q-19.2697 2.0775-38.5522 4.0343c-1.4831.1518-2.9924.0462-4.49.06z"/><path d="m.14 956.2266c12.9389-.4264 25.7281-2.4179 38.5845-3.7038 10.3886-1.0391 20.7676-2.174 31.15-3.2744 15.1554-1.6064 30.3051-3.2681 45.4663-4.8167 14.3456-1.4654 28.7105-2.7433 43.053-4.2367 14.1685-1.4751 28.3145-3.1653 42.48-4.67 11.0422-1.1727 22.1033-2.1672 33.1488-3.31 14.5008-1.5 28.9928-3.0839 43.4919-4.6008 11.0423-1.1554 22.0918-2.242 33.1343-3.3962 14.6636-1.5327 29.3219-3.116 43.9853-4.65 10.878-1.1381 21.7635-2.2051 32.64-3.3533 14.4969-1.53 28.9856-3.1386 43.4837-4.6574 11.0433-1.1568 22.1-2.1875 33.1431-3.3445 14.6637-1.5363 29.3171-3.17 43.9807-4.7068 10.8787-1.14 21.7706-2.1555 32.6495-3.2944 14.8284-1.5524 29.6457-3.2115 44.4758-4.7469 14.1782-1.4679 28.3724-2.7818 42.5492-4.263 14.0052-1.4633 27.9958-3.0661 41.9958-4.5794 10.5426-1.14 21.09-2.2342 31.6355-3.35q23.2285-2.4572 46.4579-4.9054c1.1569-.1213 2.329-.0974 3.4941-.141v8c-12.5062 1.4417-25.0185 2.8326-37.5168 4.3394-12.3316 1.4867-24.6494 3.0874-36.9725 4.6437-17.7468 2.2414-35.4879 4.529-53.2409 6.72-14.7974 1.8256-29.6141 3.4956-44.4121 5.3165-14.7935 1.82-29.5709 3.7715-44.3621 5.6114-12.0011 1.4929-24.0169 2.8678-36.0176 4.363-17.7474 2.2112-35.4793 4.5469-53.2325 6.7089-15.2943 1.8626-30.6163 3.4969-45.9128 5.3419-14.47 1.7452-28.9187 3.66-43.3829 5.451-15.123 1.8728-30.2554 3.67-45.38 5.5322-14.4674 1.7814-28.9283 3.6149-43.3945 5.4054q-22.6846 2.8077-45.3732 5.5825c-14.63 1.816-29.2539 3.6842-43.8846 5.4958-14.96 1.8524-29.927 3.6527-44.8883 5.497q-17.2646 2.1282-34.5228 4.3076-18.732 2.3391-37.4637 4.6811-26.3692 3.3344-52.7333 6.71c-2.782.3541-5.64.2173-8.31 1.2931z"/><path d="m.14 1010.2266c12.3578.51 24.4021-2.3626 36.6107-3.4725 12.859-1.169 25.6569-3.0069 38.4842-4.53 12.011-1.4258 24.0293-2.79 36.0374-4.2393 12.8213-1.547 25.6336-3.1683 38.4515-4.744 15.7788-1.94 31.5548-3.9032 47.34-5.7871 14.9688-1.7866 29.9528-3.4462 44.922-5.23 15.6223-1.8618 31.2311-3.837 46.853-5.7029 12.3386-1.4737 24.6934-2.8125 37.0312-4.2927 12.661-1.5191 25.3057-3.1738 37.9656-4.7018 12.1715-1.4691 24.3569-2.8223 36.53-4.2806 15.9506-1.9109 31.89-3.9156 47.8433-5.8038 15.1376-1.7918 30.2935-3.43 45.4292-5.2376 15.4556-1.8457 30.8917-3.8546 46.3451-5.7185 12.173-1.4682 24.3645-2.7826 36.5384-4.243 12.8241-1.5384 25.6277-3.2509 38.4575-4.7381 15.9631-1.85 31.95-3.4989 47.9151-5.328 11.52-1.32 23.02-2.8056 34.5325-4.1928 13.3163-1.6047 26.6393-3.1538 39.9521-4.787 4.5984-.5642 9.1748-1.3084 13.7612-1.97v7c-9.3205.169-18.4082 2.2585-27.6067 3.4192-15.9352 2.0108-31.8293 4.3494-47.7367 6.5791-15.7444 2.2068-31.4778 4.4937-47.2274 6.6627-15.7537 2.1695-31.5272 4.1955-47.2816 6.36-15.4244 2.1189-30.8318 4.361-46.2538 6.4974-15.9145 2.2046-31.84 4.3325-47.7563 6.5214-12.4729 1.7153-24.94 3.4761-37.41 5.21-16.2382 2.2574-32.4815 4.48-48.7151 6.77-15.5773 2.1977-31.1364 4.526-46.7195 6.6812-15.75 2.1781-31.5242 4.175-47.2781 6.3233-15.261 2.0812-30.5073 4.27-45.7643 6.3819-16.0764 2.2248-32.16 4.3978-48.2363 6.6236-12.47 1.7265-24.933 3.5066-37.4008 5.25q-24.1085 3.3713-48.2193 6.7256c-15.5825 2.1853-31.1567 4.4309-46.7433 6.586-15.7522 2.1779-31.535 4.1427-47.2668 6.457-11.1294 1.6373-22.3751 2.5056-33.384 4.9521z"/><path d="m.14 1065.2266c11.9951-1.4976 23.9971-2.942 35.9834-4.5063 16.2556-2.1216 32.4994-4.3327 48.7477-6.51q19.9449-2.673 39.8888-5.3553 21.17-2.8324 42.3411-5.651c13.2949-1.79 26.5828-3.632 39.878-5.42 13.95-1.8763 27.9063-3.6991 41.8558-5.5754 13.4589-1.81 26.9093-3.6823 40.3694-5.4833 13.9526-1.867 27.915-3.66 41.8679-5.5244 13.2983-1.7768 26.5879-3.6177 39.8848-5.4049q20.926-2.8125 41.8584-5.5786 19.9473-2.6608 39.8932-5.3321 21.173-2.8339 42.3451-5.6745 23.1466-3.1031 46.2924-6.2118 21.1659-2.862 42.325-5.7746c18.7024-2.5579 37.3975-5.1706 56.1083-7.6663 16.4172-2.19 32.8592-4.1942 49.2761-6.387 13.132-1.754 26.2207-3.8489 39.3711-5.4416 7.5574-.9152 15.0492-2.5353 22.7135-2.5027v5c-11.0134.0813-21.6648 2.9008-32.4884 4.3948-19.0287 2.6265-37.994 5.7147-56.9815 8.6374-15.7175 2.4194-31.4256 4.9-47.1437 7.3156-18.99 2.9182-37.9912 5.7653-56.9786 8.7007-15.8788 2.4548-31.7381 5.0354-47.6181 7.4822-18.6641 2.8759-37.3432 5.6549-56.0121 8.5q-23.5845 3.5941-47.1607 7.2432-28.2378 4.3523-56.472 8.7284c-25.0382 3.9068-50.058 7.9334-75.1083 11.7608-25.2166 3.8529-50.4718 7.4526-75.69 11.2984-20.3037 3.0964-40.5689 6.444-60.8653 9.5889-20.4647 3.171-40.9524 6.1929-61.42 9.3473q-34.3788 5.2987-68.7393 10.7151-4.1605.649-8.3228 1.2873z"/><path d="m.14 1119.2266c11.493-.138 22.6867-2.7362 34.0052-4.258 17.3935-2.3388 34.7272-5.1251 52.08-7.7615 21.2835-3.2338 42.5535-6.5568 63.8428-9.7521 20.8029-3.1225 41.6288-6.0926 62.4334-9.2043 21.6215-3.234 43.2226-6.6048 64.8456-9.8284 23.1006-3.4441 46.2228-6.7434 69.3238-10.1852 23.9151-3.5628 47.8085-7.2708 71.7252-10.8233 23.2631-3.4556 46.5527-6.7337 69.8137-10.2027 21.2915-3.1755 42.552-6.5573 63.8414-9.7464 20.9658-3.1408 41.9578-6.1063 62.9255-9.2343 26.0447-3.8852 52.0662-7.9272 78.1169-11.7707 19.3328-2.8524 38.6964-5.4963 58.0462-8.2331v3q-25.9478 4.4907-51.8962 8.9769c-16.814 2.89-33.626 5.7923-50.4539 8.6-23.1947 3.87-46.4131 7.5979-69.6036 11.4927-23.8471 4.0051-47.6693 8.159-71.5094 12.2075-21.2252 3.6043-42.4624 7.1388-63.69 10.732q-34.05 5.7636-68.092 11.5723-34.0514 5.75-68.115 11.4265c-14.376 2.4166-28.7437 4.8828-43.1213 7.29-23.5175 3.9375-47.0514 7.7781-70.557 11.7853-20.2448 3.4514-40.4477 7.1481-60.6908 10.6094-22.2014 3.7962-44.4276 7.4468-66.6428 11.1621q-33.3135 5.5711-66.6277 11.1453z"/><path d="m.14 1174.2266q23.54-3.7549 47.0793-7.5157 32.3641-5.2275 64.7167-10.5267c14.5451-2.3826 29.0766-4.8484 43.6213-7.2337 19.9336-3.2688 39.8789-6.4663 59.81-9.7506 18.9548-3.1233 37.8893-6.37 56.848-9.4692 23.8574-3.9 47.7338-7.6839 71.5952-11.559 14.5486-2.3629 29.08-4.8285 43.6271-7.2031 22.22-3.6268 44.4536-7.1762 66.67-10.8307 20.5888-3.387 41.1591-6.8867 61.7432-10.3034q32.098-5.3275 64.2061-10.5939c23.5274-3.8858 47.0455-7.8284 70.5821-11.6579 23.6974-3.8556 47.4161-7.5791 71.1177-11.4088 9.8051-1.5841 19.59-3.2943 29.3838-4.9473v2q-36.8972 6.8694-73.7964 13.7276c-31.4634 5.784-62.9481 11.4527-94.4118 17.2357-30.3155 5.5718-60.6125 11.2452-90.924 16.8395q-62.5829 11.55-125.1753 23.05-51.342 9.4563-102.6837 18.9141c-40.7554 7.4491-81.5348 14.7674-122.2857 22.2409-31.9493 5.8591-63.8687 11.881-95.8062 17.8047q-19.5561 3.6273-39.1347 7.1334c-1.318.2378-2.7821.1066-2.7822 2.0544-3.4232.7566-4.3757-.5457-4.0935-4.0075.3776-4.6362.093-9.3261.093-13.9928z"/><path d="m492.14.2266h190c.0585 1.915 1.5111 1.7669 2.823 2.0229q33.0946 6.4572 66.177 12.9771v32a36.1967 36.1967 0 0 1 -5.4779-.1352q-22.747-3.94-45.4656-8.0449-49.3482-8.8812-98.6892-17.8029-53.5139-9.5826-107.0541-19.0205c-1.2556-.2223-2.3008-.4466-2.3132-1.9965z"/><path d="m213.14 1192.2266c1.1486-3.5151 4.5611-2.33 6.7621-2.74 24.9189-4.6382 49.9054-8.9116 74.8616-13.3506q41.59-7.3974 83.16-14.91c32.7733-5.9083 65.5265-11.9283 98.3121-17.7671 38.4938-6.8554 77.0328-13.4577 115.5152-20.3757 35.5443-6.39 71.0359-13.0725 106.5586-19.5829 11.5671-2.12 23.1572-4.1155 34.7437-6.1276a4.1072 4.1072 0 0 1 3.0862.711c-6.164 1.3185-12.313 2.7125-18.4948 3.941-18.3618 3.65-36.7388 7.2223-55.1056 10.8462q-46.34 9.1431-92.6741 18.3153-41.22 8.1669-82.43 16.38-59.4783 11.8215-118.9551 23.65-47.3046 9.4335-94.5963 18.9314c-1.3158.2626-2.7784.1249-2.7435 2.0792z"/><path d="m477.14 1192.2266c.9678-3.4135 4.232-2.262 6.28-2.6771 28.8958-5.8553 57.8477-11.4341 86.7867-17.0762q40.9655-7.9868 81.938-15.9376a9.0879 9.0879 0 0 1 5.028.4651c-14.0042 3.0432-28 6.1237-42.0143 9.1222q-47.8824 10.2453-95.7785 20.4268c-5.5069 1.1742-11.01 2.3663-16.52 3.5257-1.2876.271-2.7917.1936-2.72 2.1511z"/><path d="m751.14 6.2266c-6.7347-1.3351-13.4645-2.6963-20.2084-3.9828-1.31-.25-2.7224-.1429-2.7916-2.0172 5.6667 0 11.3778.44 16.987-.1286 5.1906-.5257 7.143.9993 6.013 6.1286z"/><path d="m207.14.2266c-.3333.8256-.6667.7389-1 0z"/><path d="m743.2178 1096.7548a5.738 5.738 0 0 1 -4.1852.0561 4.3943 4.3943 0 0 1 4.1852-.0561z"/></g></svg>